<svg width="151" height="150" viewBox="0 0 151 150" fill="none" xmlns="http://www.w3.org/2000/svg">
<g filter="url(#filter0_i_142_443)">
<path d="M122.756 75.6188L132.331 92.1875C134.252 95.5138 135.262 99.2871 135.262 103.128C135.261 106.969 134.25 110.742 132.328 114.068C130.407 117.393 127.644 120.155 124.317 122.074C120.99 123.993 117.216 125.002 113.375 125H100.5V137.5L69.25 115.625L100.5 93.75V106.25H113.388C113.888 106.25 114.382 106.13 114.826 105.899C115.271 105.669 115.653 105.335 115.942 104.926C116.23 104.517 116.416 104.044 116.484 103.548C116.552 103.052 116.5 102.547 116.331 102.075L116.094 101.563L106.531 84.9875L122.756 75.6188ZM48.85 58.65L52.1688 96.65L41.35 90.4L34.9 101.563C34.6494 101.996 34.5068 102.484 34.484 102.984C34.4612 103.484 34.559 103.983 34.7692 104.437C34.9793 104.892 35.2956 105.289 35.6915 105.596C36.0873 105.903 36.5511 106.11 37.0438 106.2L37.6063 106.25H56.75V125H37.6063C33.7664 125 29.9943 123.989 26.6689 122.069C23.3436 120.149 20.5822 117.388 18.6624 114.062C16.7425 110.737 15.7318 106.965 15.7318 103.125C15.7318 99.285 16.7426 95.5129 18.6625 92.1875L25.1125 81.025L14.2812 74.775L48.85 58.65ZM86.4375 18.5625C89.7596 20.4815 92.5185 23.2404 94.4375 26.5625L100.881 37.725L111.713 31.475L108.388 69.475L73.825 53.35L84.6375 47.1L78.2 35.9375C77.9498 35.5038 77.599 35.1366 77.1771 34.8668C76.7553 34.5969 76.2748 34.4324 75.7762 34.3871C75.2775 34.3418 74.7752 34.4169 74.3117 34.6063C73.8481 34.7956 73.4369 35.0935 73.1125 35.475L72.7875 35.9375L63.225 52.5125L46.9875 43.1375L56.55 26.5625C57.9869 24.0745 59.8999 21.894 62.1796 20.1454C64.4593 18.3968 67.0612 17.1144 69.8366 16.3715C72.612 15.6286 75.5066 15.4398 78.355 15.8157C81.2034 16.1916 83.9499 17.125 86.4375 18.5625Z" fill="#1ADB72"/>
</g>
<defs>
<filter id="filter0_i_142_443" x="0.5" y="0" width="152" height="154" filterUnits="userSpaceOnUse" color-interpolation-filters="sRGB">
<feFlood flood-opacity="0" result="BackgroundImageFix"/>
<feBlend mode="normal" in="SourceGraphic" in2="BackgroundImageFix" result="shape"/>
<feColorMatrix in="SourceAlpha" type="matrix" values="0 0 0 0 0 0 0 0 0 0 0 0 0 0 0 0 0 0 127 0" result="hardAlpha"/>
<feOffset dx="2" dy="4"/>
<feGaussianBlur stdDeviation="2"/>
<feComposite in2="hardAlpha" operator="arithmetic" k2="-1" k3="1"/>
<feColorMatrix type="matrix" values="0 0 0 0 0 0 0 0 0 0 0 0 0 0 0 0 0 0 0.25 0"/>
<feBlend mode="normal" in2="shape" result="effect1_innerShadow_142_443"/>
</filter>
</defs>
</svg>
