<svg width="81" height="80" viewBox="0 0 81 80" fill="none" xmlns="http://www.w3.org/2000/svg">
<path d="M66.0028 40.33L71.1094 49.1667C72.1337 50.9407 72.6727 52.9531 72.6725 55.0016C72.6722 57.0501 72.1325 59.0624 71.1078 60.8361C70.0831 62.6099 68.6094 64.0825 66.835 65.106C65.0605 66.1295 63.0479 66.6678 60.9994 66.6667H54.1328V73.3333L37.4661 61.6667L54.1328 50V56.6667H61.0061C61.2731 56.6667 61.5363 56.6026 61.7734 56.4797C62.0105 56.3568 62.2145 56.1787 62.3684 55.9604C62.5223 55.7422 62.6215 55.4901 62.6576 55.2255C62.6938 54.9609 62.6658 54.6915 62.5761 54.44L62.4494 54.1667L57.3494 45.3267L66.0028 40.33ZM26.5861 31.28L28.3561 51.5467L22.5861 48.2133L19.1461 54.1667C19.0125 54.3979 18.9364 54.6579 18.9242 54.9248C18.9121 55.1916 18.9642 55.4574 19.0763 55.6999C19.1884 55.9423 19.3571 56.1543 19.5682 56.3179C19.7793 56.4815 20.0267 56.592 20.2894 56.64L20.5894 56.6667H30.7994V66.6667H20.5894C18.5415 66.6666 16.5297 66.1275 14.7562 65.1035C12.9827 64.0795 11.5099 62.6068 10.486 60.8332C9.46208 59.0597 8.92303 57.0478 8.92304 54.9999C8.92306 52.952 9.46213 50.9402 10.4861 49.1667L13.9261 43.2133L8.14941 39.88L26.5861 31.28ZM46.6327 9.90001C48.4045 10.9235 49.8759 12.3949 50.8994 14.1667L54.3361 20.12L60.1128 16.7867L58.3394 37.0533L39.9061 28.4533L45.6727 25.12L42.2394 19.1667C42.106 18.9354 41.9189 18.7395 41.6939 18.5956C41.4689 18.4517 41.2127 18.364 40.9467 18.3398C40.6807 18.3156 40.4129 18.3557 40.1656 18.4567C39.9184 18.5577 39.6991 18.7166 39.5261 18.92L39.3527 19.1667L34.2528 28.0067L25.5927 23.0067L30.6928 14.1667C31.4591 12.8397 32.4793 11.6768 33.6952 10.7442C34.9111 9.81163 36.2987 9.1277 37.7789 8.73149C39.2592 8.33528 40.8029 8.23455 42.3221 8.43505C43.8412 8.63554 45.306 9.13334 46.6327 9.90001Z" fill="white"/>
</svg>
