<svg width="250" height="250" viewBox="0 0 250 250" fill="none" xmlns="http://www.w3.org/2000/svg">
<path fill-rule="evenodd" clip-rule="evenodd" d="M152.583 13.625C150.671 12.8307 148.522 12.8277 146.608 13.6168C144.694 14.4059 143.172 15.9224 142.375 17.8333L131.542 43.875C130.83 45.7703 130.881 47.8679 131.686 49.7258C132.49 51.5837 133.984 53.0569 135.853 53.8348C137.722 54.6127 139.821 54.6346 141.706 53.896C143.591 53.1573 145.115 51.7157 145.958 49.875L156.792 23.8333C157.586 21.9214 157.589 19.7724 156.8 17.8583C156.011 15.9443 154.494 14.4217 152.583 13.625ZM190.656 13.6875C189.717 13.2715 188.705 13.0447 187.679 13.0201C186.652 12.9955 185.631 13.1735 184.673 13.5441C183.715 13.9146 182.84 14.4704 182.097 15.1796C181.354 15.8888 180.758 16.7375 180.344 17.6771L144.417 99.0729C142.356 98.4848 140.271 97.9878 138.167 97.5833L99.0624 17.4062C98.6124 16.4843 97.9851 15.6599 97.2165 14.9804C96.4479 14.3008 95.5529 13.7792 94.5827 13.4455C93.6126 13.1118 92.5861 12.9725 91.5621 13.0354C90.5381 13.0984 89.5365 13.3624 88.6145 13.8125C86.7524 14.7214 85.3277 16.3328 84.6538 18.2922C84.3201 19.2623 84.1807 20.2888 84.2437 21.3128C84.3066 22.3368 84.5707 23.3384 85.0207 24.2604L120.271 96.5104C113.595 96.9491 107.018 98.3454 100.739 100.656L59.0728 17.3437C58.6374 16.3891 58.0141 15.532 57.2402 14.8235C56.4663 14.115 55.5576 13.5697 54.5684 13.22C53.5791 12.8704 52.5296 12.7236 51.4823 12.7884C50.4351 12.8532 49.4117 13.1282 48.4731 13.5972C47.5345 14.0661 46.7 14.7194 46.0193 15.5179C45.3386 16.3163 44.8258 17.2438 44.5114 18.2448C44.197 19.2458 44.0874 20.2999 44.1892 21.3442C44.2911 22.3884 44.6022 23.4015 45.1041 24.3229L86.7707 107.656C73.8595 116.026 64.0503 128.4 58.8475 142.881C53.6447 157.362 53.3356 173.149 57.9675 187.822C62.5995 202.495 71.9167 215.244 84.4904 224.113C97.0641 232.982 112.2 237.482 127.577 236.922C142.953 236.362 157.722 230.774 169.617 221.014C181.513 211.254 189.878 197.862 193.431 182.891C196.984 167.919 195.528 152.196 189.286 138.132C183.044 124.068 172.361 112.44 158.875 105.031L194.656 23.9896C195.493 22.0944 195.543 19.9443 194.795 18.0124C194.047 16.0804 192.562 14.5247 190.667 13.6875" fill="white"/>
<path d="M120.871 152.4L110.871 155.5C109.871 154.833 108.871 153.9 107.871 152.7C106.871 151.5 106.371 149.833 106.371 147.7C106.371 143.7 108.804 140.9 113.671 139.3L124.871 135.5H128.571C131.438 135.5 133.704 136.333 135.371 138C137.038 139.667 137.871 141.933 137.871 144.8V196.9C137.138 197.033 136.038 197.2 134.571 197.4C133.171 197.667 131.738 197.8 130.271 197.8C128.804 197.8 127.471 197.7 126.271 197.5C125.138 197.3 124.171 196.9 123.371 196.3C122.571 195.7 121.938 194.9 121.471 193.9C121.071 192.833 120.871 191.467 120.871 189.8V152.4Z" fill="#FFD400"/>
</svg>