<svg width="81" height="80" viewBox="0 0 81 80" fill="none" xmlns="http://www.w3.org/2000/svg">
<path d="M47.9741 34.8167L60.4007 6.66666M31.4541 35.44L17.0674 6.66666M42.9407 33.4933L29.8507 6.66666M48.2674 6.66666L44.8007 15M20.4007 53.3333C20.4007 58.6377 22.5079 63.7247 26.2586 67.4755C30.0093 71.2262 35.0964 73.3333 40.4007 73.3333C45.705 73.3333 50.7921 71.2262 54.5429 67.4755C58.2936 63.7247 60.4007 58.6377 60.4007 53.3333C60.4007 48.029 58.2936 42.9419 54.5429 39.1912C50.7921 35.4405 45.705 33.3333 40.4007 33.3333C35.0964 33.3333 30.0093 35.4405 26.2586 39.1912C22.5079 42.9419 20.4007 48.029 20.4007 53.3333Z" stroke="white" stroke-width="6.875" stroke-linecap="round" stroke-linejoin="round"/>
</svg>