<svg width="150" height="150" viewBox="0 0 150 150" fill="none" xmlns="http://www.w3.org/2000/svg">
<g filter="url(#filter0_i_169_464)">
<path d="M89.2 65.2812L112.5 12.5M58.225 66.45L31.25 12.5M79.7625 62.8L55.2188 12.5M89.75 12.5L83.25 28.125M37.5 100C37.5 109.946 41.4509 119.484 48.4835 126.517C55.5161 133.549 65.0544 137.5 75 137.5C84.9456 137.5 94.4839 133.549 101.517 126.517C108.549 119.484 112.5 109.946 112.5 100C112.5 90.0544 108.549 80.5161 101.517 73.4835C94.4839 66.4509 84.9456 62.5 75 62.5C65.0544 62.5 55.5161 66.4509 48.4835 73.4835C41.4509 80.5161 37.5 90.0544 37.5 100Z" stroke="#FFD400" stroke-width="12" stroke-linecap="round" stroke-linejoin="round"/>
</g>
<defs>
<filter id="filter0_i_169_464" x="0" y="0" width="152" height="154" filterUnits="userSpaceOnUse" color-interpolation-filters="sRGB">
<feFlood flood-opacity="0" result="BackgroundImageFix"/>
<feBlend mode="normal" in="SourceGraphic" in2="BackgroundImageFix" result="shape"/>
<feColorMatrix in="SourceAlpha" type="matrix" values="0 0 0 0 0 0 0 0 0 0 0 0 0 0 0 0 0 0 127 0" result="hardAlpha"/>
<feOffset dx="2" dy="4"/>
<feGaussianBlur stdDeviation="2"/>
<feComposite in2="hardAlpha" operator="arithmetic" k2="-1" k3="1"/>
<feColorMatrix type="matrix" values="0 0 0 0 0 0 0 0 0 0 0 0 0 0 0 0 0 0 0.25 0"/>
<feBlend mode="normal" in2="shape" result="effect1_innerShadow_169_464"/>
</filter>
</defs>
</svg>
