<svg width="80" height="80" viewBox="0 0 80 80" fill="none" xmlns="http://www.w3.org/2000/svg">
<path d="M23.333 56.6667V60C23.333 60.8841 23.6842 61.7319 24.3093 62.357C24.9344 62.9821 25.7823 63.3333 26.6663 63.3333H53.333C54.2171 63.3333 55.0649 62.9821 55.69 62.357C56.3152 61.7319 56.6663 60.8841 56.6663 60V56.6667C56.6663 54.0145 55.6128 51.471 53.7374 49.5956C51.862 47.7202 49.3185 46.6667 46.6663 46.6667H33.333C30.6808 46.6667 28.1373 47.7202 26.2619 49.5956C24.3866 51.471 23.333 54.0145 23.333 56.6667ZM49.9997 26.6667C49.9997 29.3188 48.9461 31.8624 47.0707 33.7377C45.1954 35.6131 42.6518 36.6667 39.9997 36.6667C37.3475 36.6667 34.804 35.6131 32.9286 33.7377C31.0532 31.8624 29.9997 29.3188 29.9997 26.6667C29.9997 24.0145 31.0532 21.471 32.9286 19.5956C34.804 17.7202 37.3475 16.6667 39.9997 16.6667C42.6518 16.6667 45.1954 17.7202 47.0707 19.5956C48.9461 21.471 49.9997 24.0145 49.9997 26.6667Z" stroke="white" stroke-width="7"/>
</svg>
