<svg width="100" height="101" viewBox="0 0 100 101" fill="none" xmlns="http://www.w3.org/2000/svg">
<path d="M43.7497 92.25C21.8884 92.25 4.16634 73.5952 4.16634 50.5834C4.16634 27.5715 21.8884 8.91669 43.7497 8.91669C65.6109 8.91669 83.333 27.5715 83.333 50.5834C83.333 73.5952 65.6109 92.25 43.7497 92.25Z" stroke="#020202" stroke-width="7" stroke-linecap="round" stroke-linejoin="round"/>
<path d="M54.1665 37.25C51.5151 35.0987 48.2059 33.9221 44.7915 33.9167C36.1623 33.9167 29.1665 41.375 29.1665 50.5834C29.1665 59.7917 36.1623 67.25 44.7915 67.25C48.3082 67.25 51.554 66.0084 54.1665 63.9167" stroke="#020202" stroke-width="7" stroke-linecap="round" stroke-linejoin="round"/>
<path d="M41.6665 8.91669C59.7207 8.91669 95.8332 13.0834 95.8332 50.5834C95.8332 88.0834 59.7207 92.25 41.6665 92.25" stroke="#020202" stroke-width="7"/>
</svg>
