<svg width="246" height="264" viewBox="0 0 246 264" fill="none" xmlns="http://www.w3.org/2000/svg">
<path d="M61.5 132.167H92.25M153.75 132.167V165.042M123 197.917H153.75M123 132.287L123.103 132.167M184.5 132.287L184.603 132.167M123 165.162L123.103 165.042M184.5 165.162L184.603 165.042M184.5 198.037L184.603 197.917M123 99.4122L123.103 99.2917M123 66.5372L123.103 66.4167M184.5 33.5417H215.25V66.4167M184.5 230.792H215.25V197.917M61.5 33.5417H30.75V66.4167M61.5 230.792H30.75V197.917M92.25 72.9917V92.7167C92.25 94.4605 91.6021 96.1329 90.4487 97.3659C89.2954 98.599 87.7311 99.2917 86.1 99.2917H67.65C66.0189 99.2917 64.4546 98.599 63.3013 97.3659C62.1479 96.1329 61.5 94.4605 61.5 92.7167V72.9917C61.5 71.2479 62.1479 69.5755 63.3013 68.3424C64.4546 67.1094 66.0189 66.4167 67.65 66.4167H86.1C87.7311 66.4167 89.2954 67.1094 90.4487 68.3424C91.6021 69.5755 92.25 71.2479 92.25 72.9917ZM92.25 171.617V191.342C92.25 193.085 91.6021 194.758 90.4487 195.991C89.2954 197.224 87.7311 197.917 86.1 197.917H67.65C66.0189 197.917 64.4546 197.224 63.3013 195.991C62.1479 194.758 61.5 193.085 61.5 191.342V171.617C61.5 169.873 62.1479 168.2 63.3013 166.967C64.4546 165.734 66.0189 165.042 67.65 165.042H86.1C87.7311 165.042 89.2954 165.734 90.4487 166.967C91.6021 168.2 92.25 169.873 92.25 171.617ZM184.5 72.9917V92.7167C184.5 94.4605 183.852 96.1329 182.699 97.3659C181.545 98.599 179.981 99.2917 178.35 99.2917H159.9C158.269 99.2917 156.705 98.599 155.551 97.3659C154.398 96.1329 153.75 94.4605 153.75 92.7167V72.9917C153.75 71.2479 154.398 69.5755 155.551 68.3424C156.705 67.1094 158.269 66.4167 159.9 66.4167H178.35C179.981 66.4167 181.545 67.1094 182.699 68.3424C183.852 69.5755 184.5 71.2479 184.5 72.9917Z" stroke="#1E1E1E" stroke-width="20" stroke-linecap="round" stroke-linejoin="round"/>
</svg>
