<svg width="81" height="80" viewBox="0 0 81 80" fill="none" xmlns="http://www.w3.org/2000/svg">
<path d="M66.8667 66.6667L53.3668 53.1667M53.3668 53.1667C55.5336 50.9999 57.2524 48.4275 58.425 45.5964C59.5977 42.7653 60.2013 39.731 60.2013 36.6667C60.2013 33.6023 59.5977 30.568 58.425 27.7369C57.2524 24.9059 55.5336 22.3335 53.3668 20.1667C51.1999 17.9999 48.6276 16.2811 45.7965 15.1084C42.9654 13.9357 39.9311 13.3322 36.8667 13.3322C33.8024 13.3322 30.7681 13.9357 27.937 15.1084C25.1059 16.2811 22.5336 17.9999 20.3668 20.1667C15.9907 24.5427 13.5322 30.478 13.5322 36.6667C13.5322 42.8554 15.9907 48.7906 20.3668 53.1667C24.7428 57.5427 30.678 60.0012 36.8667 60.0012C43.0555 60.0012 48.9907 57.5427 53.3668 53.1667Z" stroke="white" stroke-width="9.16667" stroke-linecap="round" stroke-linejoin="round"/>
</svg>
