<svg width="250" height="250" viewBox="0 0 250 250" fill="none" xmlns="http://www.w3.org/2000/svg">
<path fill-rule="evenodd" clip-rule="evenodd" d="M152.583 13.625C150.671 12.8307 148.522 12.8277 146.608 13.6168C144.694 14.4059 143.172 15.9224 142.375 17.8333L131.542 43.875C130.83 45.7703 130.881 47.8679 131.686 49.7258C132.49 51.5837 133.984 53.0569 135.853 53.8348C137.722 54.6127 139.821 54.6346 141.706 53.896C143.591 53.1573 145.115 51.7157 145.958 49.875L156.792 23.8333C157.586 21.9214 157.589 19.7724 156.8 17.8583C156.011 15.9443 154.494 14.4217 152.583 13.625ZM190.656 13.6875C189.717 13.2715 188.705 13.0447 187.679 13.0201C186.652 12.9955 185.631 13.1735 184.673 13.5441C183.715 13.9146 182.84 14.4704 182.097 15.1796C181.354 15.8888 180.758 16.7375 180.344 17.6771L144.417 99.0729C142.356 98.4848 140.271 97.9878 138.167 97.5833L99.0624 17.4062C98.6124 16.4843 97.9851 15.6599 97.2165 14.9804C96.4479 14.3008 95.5529 13.7792 94.5827 13.4455C93.6126 13.1118 92.5861 12.9725 91.5621 13.0354C90.5381 13.0984 89.5365 13.3624 88.6145 13.8125C86.7524 14.7214 85.3277 16.3328 84.6538 18.2922C84.3201 19.2623 84.1807 20.2888 84.2437 21.3128C84.3066 22.3368 84.5707 23.3384 85.0207 24.2604L120.271 96.5104C113.595 96.9491 107.018 98.3454 100.739 100.656L59.0728 17.3437C58.6374 16.3891 58.0141 15.532 57.2402 14.8235C56.4663 14.115 55.5576 13.5697 54.5684 13.22C53.5791 12.8704 52.5296 12.7236 51.4823 12.7884C50.4351 12.8532 49.4117 13.1282 48.4731 13.5972C47.5345 14.0661 46.7 14.7194 46.0193 15.5179C45.3386 16.3163 44.8258 17.2438 44.5114 18.2448C44.197 19.2458 44.0874 20.2999 44.1892 21.3442C44.2911 22.3884 44.6022 23.4015 45.1041 24.3229L86.7707 107.656C73.8595 116.026 64.0503 128.4 58.8475 142.881C53.6447 157.362 53.3356 173.149 57.9675 187.822C62.5995 202.495 71.9167 215.244 84.4904 224.113C97.0641 232.982 112.2 237.482 127.577 236.922C142.953 236.362 157.722 230.774 169.617 221.014C181.513 211.254 189.878 197.862 193.431 182.891C196.984 167.919 195.528 152.196 189.286 138.132C183.044 124.068 172.361 112.44 158.875 105.031L194.656 23.9896C195.493 22.0944 195.543 19.9443 194.795 18.0124C194.047 16.0804 192.562 14.5247 190.667 13.6875" fill="#F3F2F2"/>
<path d="M122.977 134.7C126.777 134.7 130.144 135.2 133.077 136.2C136.01 137.133 138.51 138.433 140.577 140.1C142.644 141.767 144.21 143.733 145.277 146C146.344 148.267 146.877 150.7 146.877 153.3C146.877 160.3 142.91 166.967 134.977 173.3L121.877 183.8H145.877C146.277 184.533 146.644 185.467 146.977 186.6C147.377 187.733 147.577 188.967 147.577 190.3C147.577 192.7 147.044 194.433 145.977 195.5C144.91 196.5 143.51 197 141.777 197H107.077C105.61 196 104.444 194.733 103.577 193.2C102.777 191.6 102.377 189.733 102.377 187.6C102.377 185.333 102.844 183.433 103.777 181.9C104.71 180.3 105.744 179.033 106.877 178.1L120.677 166.3C122.41 164.833 123.844 163.533 124.977 162.4C126.11 161.2 127.01 160.133 127.677 159.2C128.41 158.267 128.91 157.4 129.177 156.6C129.51 155.8 129.677 155.033 129.677 154.3C129.677 152.433 128.844 150.967 127.177 149.9C125.577 148.833 123.577 148.3 121.177 148.3C118.51 148.3 116.11 148.733 113.977 149.6C111.91 150.4 110.177 151.267 108.777 152.2C107.644 151.4 106.71 150.4 105.977 149.2C105.244 148 104.877 146.6 104.877 145C104.877 141.533 106.51 138.967 109.777 137.3C113.044 135.567 117.444 134.7 122.977 134.7Z" fill="#ACACAC"/>
</svg>