<svg width="250" height="250" viewBox="0 0 250 250" fill="none" xmlns="http://www.w3.org/2000/svg">
<path fill-rule="evenodd" clip-rule="evenodd" d="M152.583 13.625C150.671 12.8307 148.522 12.8277 146.608 13.6168C144.694 14.4059 143.172 15.9224 142.375 17.8333L131.542 43.875C130.83 45.7703 130.881 47.8679 131.686 49.7258C132.49 51.5837 133.984 53.0569 135.853 53.8348C137.722 54.6127 139.821 54.6346 141.706 53.896C143.591 53.1573 145.115 51.7157 145.958 49.875L156.792 23.8333C157.586 21.9214 157.589 19.7724 156.8 17.8583C156.011 15.9443 154.494 14.4217 152.583 13.625ZM190.656 13.6875C189.717 13.2715 188.705 13.0447 187.679 13.0201C186.652 12.9955 185.631 13.1735 184.673 13.5441C183.715 13.9146 182.84 14.4704 182.097 15.1796C181.354 15.8888 180.758 16.7375 180.344 17.6771L144.417 99.0729C142.356 98.4848 140.271 97.9878 138.167 97.5833L99.0624 17.4062C98.6124 16.4843 97.9851 15.6599 97.2165 14.9804C96.4479 14.3008 95.5529 13.7792 94.5827 13.4455C93.6126 13.1118 92.5861 12.9725 91.5621 13.0354C90.5381 13.0984 89.5365 13.3624 88.6145 13.8125C86.7524 14.7214 85.3277 16.3328 84.6538 18.2922C84.3201 19.2623 84.1807 20.2888 84.2437 21.3128C84.3066 22.3368 84.5707 23.3384 85.0207 24.2604L120.271 96.5104C113.595 96.9491 107.018 98.3454 100.739 100.656L59.0728 17.3437C58.6374 16.3891 58.0141 15.532 57.2402 14.8235C56.4663 14.115 55.5576 13.5697 54.5684 13.22C53.5791 12.8704 52.5296 12.7236 51.4823 12.7884C50.4351 12.8532 49.4117 13.1282 48.4731 13.5972C47.5345 14.0661 46.7 14.7194 46.0193 15.5179C45.3386 16.3163 44.8258 17.2438 44.5114 18.2448C44.197 19.2458 44.0874 20.2999 44.1892 21.3442C44.2911 22.3884 44.6022 23.4015 45.1041 24.3229L86.7707 107.656C73.8595 116.026 64.0503 128.4 58.8475 142.881C53.6447 157.362 53.3356 173.149 57.9675 187.822C62.5995 202.495 71.9167 215.244 84.4904 224.113C97.0641 232.982 112.2 237.482 127.577 236.922C142.953 236.362 157.722 230.774 169.617 221.014C181.513 211.254 189.878 197.862 193.431 182.891C196.984 167.919 195.528 152.196 189.286 138.132C183.044 124.068 172.361 112.44 158.875 105.031L194.656 23.9896C195.493 22.0944 195.543 19.9443 194.795 18.0124C194.047 16.0804 192.562 14.5247 190.667 13.6875" fill="white"/>
<path d="M122.421 134.7C130.088 134.7 135.921 136.3 139.921 139.5C143.921 142.633 145.921 146.867 145.921 152.2C145.921 155.4 145.054 158.133 143.321 160.4C141.654 162.6 139.654 164.267 137.321 165.4C138.721 165.933 140.021 166.6 141.221 167.4C142.421 168.2 143.488 169.2 144.421 170.4C145.354 171.6 146.088 173 146.621 174.6C147.154 176.2 147.421 178.067 147.421 180.2C147.421 183.067 146.788 185.633 145.521 187.9C144.321 190.167 142.621 192.1 140.421 193.7C138.221 195.3 135.588 196.5 132.521 197.3C129.521 198.167 126.221 198.6 122.621 198.6C115.688 198.6 110.454 197.633 106.921 195.7C103.388 193.767 101.621 191.3 101.621 188.3C101.621 186.5 102.054 184.967 102.921 183.7C103.788 182.367 104.854 181.333 106.121 180.6C107.454 181.533 109.221 182.533 111.421 183.6C113.688 184.6 116.621 185.1 120.221 185.1C123.621 185.1 126.121 184.5 127.721 183.3C129.388 182.1 130.221 180.533 130.221 178.6C130.221 176.667 129.554 175.2 128.221 174.2C126.954 173.2 124.721 172.7 121.521 172.7H112.121C111.654 171.967 111.254 171.067 110.921 170C110.588 168.933 110.421 167.667 110.421 166.2C110.421 164.667 110.554 163.367 110.821 162.3C111.154 161.167 111.588 160.233 112.121 159.5H121.521C126.321 159.5 128.721 157.667 128.721 154C128.721 152.267 127.954 150.867 126.421 149.8C124.888 148.733 122.588 148.2 119.521 148.2C116.788 148.2 114.388 148.533 112.321 149.2C110.254 149.8 108.554 150.567 107.221 151.5C106.088 150.7 105.154 149.733 104.421 148.6C103.688 147.4 103.321 146 103.321 144.4C103.321 141.067 105.054 138.633 108.521 137.1C111.988 135.5 116.621 134.7 122.421 134.7Z" fill="#FA9547"/>
</svg>
