<svg width="79" height="72" viewBox="0 0 79 72" fill="none" xmlns="http://www.w3.org/2000/svg">
<path d="M34.4993 69.3333C17.0103 69.3333 2.83268 54.4095 2.83268 36C2.83268 17.5905 17.0103 2.66666 34.4993 2.66666C51.9884 2.66666 66.166 17.5905 66.166 36C66.166 54.4095 51.9884 69.3333 34.4993 69.3333Z" stroke="#FA9547" stroke-width="5" stroke-linecap="round" stroke-linejoin="round"/>
<path d="M42.833 25.3333C40.7119 23.6123 38.0645 22.671 35.333 22.6667C28.4297 22.6667 22.833 28.6333 22.833 36C22.833 43.3667 28.4297 49.3333 35.333 49.3333C38.1463 49.3333 40.743 48.34 42.833 46.6667" stroke="#FA9547" stroke-width="5" stroke-linecap="round" stroke-linejoin="round"/>
<path d="M32.833 2.66666C47.2763 2.66666 76.1663 5.99999 76.1663 36C76.1663 66 47.2763 69.3333 32.833 69.3333" stroke="#FA9547" stroke-width="5"/>
</svg>
