<svg width="81" height="80" viewBox="0 0 81 80" fill="none" xmlns="http://www.w3.org/2000/svg">
<path d="M35.599 73.3333C18.1099 73.3333 3.93229 58.4095 3.93229 40C3.93229 21.5905 18.1099 6.66666 35.599 6.66666C53.088 6.66666 67.2656 21.5905 67.2656 40C67.2656 58.4095 53.088 73.3333 35.599 73.3333Z" stroke="white" stroke-width="7" stroke-linecap="round" stroke-linejoin="round"/>
<path d="M43.9326 29.3333C41.8115 27.6123 39.1641 26.671 36.4326 26.6667C29.5293 26.6667 23.9326 32.6333 23.9326 40C23.9326 47.3667 29.5293 53.3333 36.4326 53.3333C39.246 53.3333 41.8426 52.34 43.9326 50.6667" stroke="white" stroke-width="7" stroke-linecap="round" stroke-linejoin="round"/>
<path d="M33.9326 6.66666C48.376 6.66666 77.266 9.99999 77.266 40C77.266 70 48.376 73.3333 33.9326 73.3333" stroke="white" stroke-width="7"/>
</svg>
