<svg width="120" height="120" viewBox="0 0 120 120" fill="none" xmlns="http://www.w3.org/2000/svg">
<g filter="url(#filter0_i_188_298)">
<path d="M52.5 110C26.2665 110 4.99999 87.6142 4.99999 60C4.99999 32.3858 26.2665 10 52.5 10C78.7335 10 100 32.3858 100 60C100 87.6142 78.7335 110 52.5 110Z" stroke="#FFD400" stroke-width="9" stroke-linecap="round" stroke-linejoin="round"/>
<path d="M65 44C61.8183 41.4184 57.8473 40.0065 53.75 40C43.395 40 35 48.95 35 60C35 71.05 43.395 80 53.75 80C57.97 80 61.865 78.51 65 76" stroke="#FFD400" stroke-width="9" stroke-linecap="round" stroke-linejoin="round"/>
<path d="M50 10C71.665 10 115 15 115 60C115 105 71.665 110 50 110" stroke="#FFD400" stroke-width="9"/>
</g>
<defs>
<filter id="filter0_i_188_298" x="0" y="0" width="122" height="124" filterUnits="userSpaceOnUse" color-interpolation-filters="sRGB">
<feFlood flood-opacity="0" result="BackgroundImageFix"/>
<feBlend mode="normal" in="SourceGraphic" in2="BackgroundImageFix" result="shape"/>
<feColorMatrix in="SourceAlpha" type="matrix" values="0 0 0 0 0 0 0 0 0 0 0 0 0 0 0 0 0 0 127 0" result="hardAlpha"/>
<feOffset dx="2" dy="4"/>
<feGaussianBlur stdDeviation="2"/>
<feComposite in2="hardAlpha" operator="arithmetic" k2="-1" k3="1"/>
<feColorMatrix type="matrix" values="0 0 0 0 0 0 0 0 0 0 0 0 0 0 0 0 0 0 0.25 0"/>
<feBlend mode="normal" in2="shape" result="effect1_innerShadow_188_298"/>
</filter>
</defs>
</svg>
