<svg width="170" height="107" viewBox="0 0 170 107" fill="none" xmlns="http://www.w3.org/2000/svg">
<path d="M27.7037 63.1111C69.1035 63.1111 72.4348 27.8928 72.7015 11.1563C72.7039 10.701 72.615 10.2499 72.44 9.82956C72.265 9.40926 72.0075 9.02833 71.6827 8.70932C71.3578 8.39031 70.9723 8.1397 70.5489 7.97232C70.1256 7.80494 69.6729 7.72419 69.2177 7.73485C10.3889 8.81529 10.3889 37.3363 10.3889 63.1111V76.9629" stroke="#1ADB72" stroke-width="9.16667" stroke-linecap="round" stroke-linejoin="round"/>
<path d="M10.3889 63.1111C10.3889 63.1111 10.3889 42.3333 38.0926 38.8704" stroke="#1ADB72" stroke-width="9.16667" stroke-linecap="round" stroke-linejoin="round"/>
<path d="M31.6741 70H33.1556V71.4815H31.6741V70ZM31.6741 71.4815H33.1556V72.963H31.6741V71.4815ZM31.6741 72.963H33.1556V74.4445H31.6741V72.963ZM31.6741 74.4445H33.1556V75.9259H31.6741V74.4445ZM31.6741 75.9259H33.1556V77.4074H31.6741V75.9259ZM31.6741 77.4074H33.1556V78.8889H31.6741V77.4074ZM31.6741 78.8889H33.1556V80.3704H31.6741V78.8889ZM31.6741 80.3704H33.1556V81.8519H31.6741V80.3704ZM31.6741 81.8519H33.1556V83.3333H31.6741V81.8519ZM31.6741 83.3333H33.1556V84.8148H31.6741V83.3333ZM31.6741 84.8148H33.1556V86.2963H31.6741V84.8148ZM31.6741 86.2963H33.1556V87.7778H31.6741V86.2963ZM31.6741 87.7778H33.1556V89.2593H31.6741V87.7778ZM31.6741 89.2593H33.1556V90.7407H31.6741V89.2593ZM31.6741 90.7407H33.1556V92.2222H31.6741V90.7407ZM30.1927 90.7407H31.6741V92.2222H30.1927V90.7407ZM30.1927 89.2593H31.6741V90.7407H30.1927V89.2593ZM30.1927 87.7778H31.6741V89.2593H30.1927V87.7778ZM30.1927 71.4815H31.6741V72.963H30.1927V71.4815ZM30.1927 70H31.6741V71.4815H30.1927V70ZM30.1927 72.963H31.6741V74.4445H30.1927V72.963ZM30.1927 74.4445H31.6741V75.9259H30.1927V74.4445ZM30.1927 75.9259H31.6741V77.4074H30.1927V75.9259ZM30.1927 77.4074H31.6741V78.8889H30.1927V77.4074ZM30.1927 78.8889H31.6741V80.3704H30.1927V78.8889ZM30.1927 80.3704H31.6741V81.8519H30.1927V80.3704ZM30.1927 81.8519H31.6741V83.3333H30.1927V81.8519ZM30.1927 83.3333H31.6741V84.8148H30.1927V83.3333ZM30.1927 84.8148H31.6741V86.2963H30.1927V84.8148ZM30.1927 86.2963H31.6741V87.7778H30.1927V86.2963ZM33.1556 90.7407H34.6371V92.2222H33.1556V90.7407ZM33.1556 89.2593H34.6371V90.7407H33.1556V89.2593ZM33.1556 87.7778H34.6371V89.2593H33.1556V87.7778ZM33.1556 86.2963H34.6371V87.7778H33.1556V86.2963ZM33.1556 83.3333H34.6371V84.8148H33.1556V83.3333ZM33.1556 81.8519H34.6371V83.3333H33.1556V81.8519ZM33.1556 80.3704H34.6371V81.8519H33.1556V80.3704ZM33.1556 78.8889H34.6371V80.3704H33.1556V78.8889ZM33.1556 77.4074H34.6371V78.8889H33.1556V77.4074ZM33.1556 75.9259H34.6371V77.4074H33.1556V75.9259ZM33.1556 70H34.6371V71.4815H33.1556V70ZM33.1556 71.4815H34.6371V72.963H33.1556V71.4815ZM33.1556 72.963H34.6371V74.4445H33.1556V72.963ZM33.1556 74.4445H34.6371V75.9259H33.1556V74.4445ZM33.1556 84.8148H34.6371V86.2963H33.1556V84.8148ZM34.6371 90.7407H36.1186V92.2222H34.6371V90.7407ZM36.1186 90.7407H37.6001V92.2222H36.1186V90.7407ZM37.6001 90.7407H39.0816V92.2222H37.6001V90.7407ZM37.6001 89.2593H39.0816V90.7407H37.6001V89.2593ZM37.6001 87.7778H39.0816V89.2593H37.6001V87.7778ZM36.1186 87.7778H37.6001V89.2593H36.1186V87.7778ZM36.1186 89.2593H37.6001V90.7407H36.1186V89.2593ZM34.6371 89.2593H36.1186V90.7407H34.6371V89.2593ZM34.6371 87.7778H36.1186V89.2593H34.6371V87.7778ZM39.0816 87.7778H40.563V89.2593H39.0816V87.7778ZM39.0816 89.2593H40.563V90.7407H39.0816V89.2593ZM39.0816 90.7407H40.563V92.2222H39.0816V90.7407ZM40.563 90.7407H42.0445V92.2222H40.563V90.7407ZM40.563 89.2593H42.0445V90.7407H40.563V89.2593ZM40.563 87.7778H42.0445V89.2593H40.563V87.7778ZM42.0445 87.7778H43.526V89.2593H42.0445V87.7778ZM42.0445 89.2593H43.526V90.7407H42.0445V89.2593ZM42.0445 90.7407H43.526V92.2222H42.0445V90.7407ZM34.6371 70H36.1186V71.4815H34.6371V70ZM36.1186 70H37.6001V71.4815H36.1186V70ZM37.6001 70H39.0816V71.4815H37.6001V70ZM39.0816 70H40.563V71.4815H39.0816V70ZM40.563 70H42.0445V71.4815H40.563V70ZM42.0445 70H43.526V71.4815H42.0445V70ZM42.0445 71.4815H43.526V72.963H42.0445V71.4815ZM42.0445 72.963H43.526V74.4445H42.0445V72.963ZM40.563 72.963H42.0445V74.4445H40.563V72.963ZM39.0816 72.963H40.563V74.4445H39.0816V72.963ZM37.6001 72.963H39.0816V74.4445H37.6001V72.963ZM36.1186 72.963H37.6001V74.4445H36.1186V72.963ZM36.1186 71.4815H37.6001V72.963H36.1186V71.4815ZM34.6371 71.4815H36.1186V72.963H34.6371V71.4815ZM34.6371 72.963H36.1186V74.4445H34.6371V72.963ZM37.6001 71.4815H39.0816V72.963H37.6001V71.4815ZM39.0816 71.4815H40.563V72.963H39.0816V71.4815ZM40.563 71.4815H42.0445V72.963H40.563V71.4815ZM34.6371 78.8889H36.1186V80.3704H34.6371V78.8889ZM34.6371 80.3704H36.1186V81.8519H34.6371V80.3704ZM34.6371 81.8519H36.1186V83.3333H34.6371V81.8519ZM36.1186 81.8519H37.6001V83.3333H36.1186V81.8519ZM36.1186 80.3704H37.6001V81.8519H36.1186V80.3704ZM36.1186 78.8889H37.6001V80.3704H36.1186V78.8889ZM37.6001 78.8889H39.0816V80.3704H37.6001V78.8889ZM37.6001 80.3704H39.0816V81.8519H37.6001V80.3704ZM39.0816 80.3704H40.563V81.8519H39.0816V80.3704ZM39.0816 78.8889H40.563V80.3704H39.0816V78.8889ZM39.0816 81.8519H40.563V83.3333H39.0816V81.8519ZM37.6001 81.8519H39.0816V83.3333H37.6001V81.8519ZM40.563 78.8889H42.0445V80.3704H40.563V78.8889ZM40.563 80.3704H42.0445V81.8519H40.563V80.3704ZM40.563 81.8519H42.0445V83.3333H40.563V81.8519ZM49.4447 70H50.9262V71.4815H49.4447V70ZM50.9262 70H52.4077V71.4815H50.9262V70ZM52.4077 70H53.8891V71.4815H52.4077V70ZM53.8891 70H55.3706V71.4815H53.8891V70ZM55.3706 70H56.8521V71.4815H55.3706V70ZM56.8521 70H58.3336V71.4815H56.8521V70ZM56.8521 71.4815H58.3336V72.963H56.8521V71.4815ZM58.3336 71.4815H59.8151V72.963H58.3336V71.4815ZM55.3706 71.4815H56.8521V72.963H55.3706V71.4815ZM53.8891 71.4815H55.3706V72.963H53.8891V71.4815ZM52.4077 71.4815H53.8891V72.963H52.4077V71.4815ZM50.9262 71.4815H52.4077V72.963H50.9262V71.4815ZM49.4447 71.4815H50.9262V72.963H49.4447V71.4815ZM47.9632 72.963H49.4447V74.4445H47.9632V72.963ZM47.9632 71.4815H49.4447V72.963H47.9632V71.4815ZM46.4817 72.963H47.9632V74.4445H46.4817V72.963ZM49.4447 72.963H50.9262V74.4445H49.4447V72.963ZM50.9262 72.963H52.4077V74.4445H50.9262V72.963ZM52.4077 72.963H53.8891V74.4445H52.4077V72.963ZM53.8891 72.963H55.3706V74.4445H53.8891V72.963ZM55.3706 72.963H56.8521V74.4445H55.3706V72.963ZM56.8521 72.963H58.3336V74.4445H56.8521V72.963ZM58.3336 72.963H59.8151V74.4445H58.3336V72.963ZM59.8151 72.963H61.2965V74.4445H59.8151V72.963ZM59.8151 74.4445H61.2965V75.9259H59.8151V74.4445ZM58.3336 74.4445H59.8151V75.9259H58.3336V74.4445ZM56.8521 74.4445H58.3336V75.9259H56.8521V74.4445ZM55.3706 74.4445H56.8521V75.9259H55.3706V74.4445ZM56.8521 75.9259H58.3336V77.4074H56.8521V75.9259ZM59.8151 75.9259H61.2965V77.4074H59.8151V75.9259ZM58.3336 75.9259H59.8151V77.4074H58.3336V75.9259ZM59.8151 84.8148H61.2965V86.2963H59.8151V84.8148ZM59.8151 86.2963H61.2965V87.7778H59.8151V86.2963ZM59.8151 87.7778H61.2965V89.2593H59.8151V87.7778ZM58.3336 87.7778H59.8151V89.2593H58.3336V87.7778ZM58.3336 86.2963H59.8151V87.7778H58.3336V86.2963ZM58.3336 84.8148H59.8151V86.2963H58.3336V84.8148ZM56.8521 84.8148H58.3336V86.2963H56.8521V84.8148ZM56.8521 86.2963H58.3336V87.7778H56.8521V86.2963ZM55.3706 86.2963H56.8521V87.7778H55.3706V86.2963ZM56.8521 87.7778H58.3336V89.2593H56.8521V87.7778ZM58.3336 89.2593H59.8151V90.7407H58.3336V89.2593ZM56.8521 89.2593H58.3336V90.7407H56.8521V89.2593ZM55.3706 87.7778H56.8521V89.2593H55.3706V87.7778ZM55.3706 89.2593H56.8521V90.7407H55.3706V89.2593ZM56.8521 90.7407H58.3336V92.2222H56.8521V90.7407ZM55.3706 90.7407H56.8521V92.2222H55.3706V90.7407ZM53.8891 90.7407H55.3706V92.2222H53.8891V90.7407ZM52.4077 90.7407H53.8891V92.2222H52.4077V90.7407ZM50.9262 90.7407H52.4077V92.2222H50.9262V90.7407ZM49.4447 90.7407H50.9262V92.2222H49.4447V90.7407ZM49.4447 89.2593H50.9262V90.7407H49.4447V89.2593ZM50.9262 89.2593H52.4077V90.7407H50.9262V89.2593ZM50.9262 87.7778H52.4077V89.2593H50.9262V87.7778ZM52.4077 87.7778H53.8891V89.2593H52.4077V87.7778ZM53.8891 87.7778H55.3706V89.2593H53.8891V87.7778ZM53.8891 89.2593H55.3706V90.7407H53.8891V89.2593ZM52.4077 89.2593H53.8891V90.7407H52.4077V89.2593ZM47.9632 89.2593H49.4447V90.7407H47.9632V89.2593ZM49.4447 87.7778H50.9262V89.2593H49.4447V87.7778ZM50.9262 86.2963H52.4077V87.7778H50.9262V86.2963ZM49.4447 86.2963H50.9262V87.7778H49.4447V86.2963ZM47.9632 86.2963H49.4447V87.7778H47.9632V86.2963ZM47.9632 87.7778H49.4447V89.2593H47.9632V87.7778ZM46.4817 87.7778H47.9632V89.2593H46.4817V87.7778ZM46.4817 86.2963H47.9632V87.7778H46.4817V86.2963ZM46.4817 84.8148H47.9632V86.2963H46.4817V84.8148ZM46.4817 83.3333H47.9632V84.8148H46.4817V83.3333ZM46.4817 81.8519H47.9632V83.3333H46.4817V81.8519ZM46.4817 80.3704H47.9632V81.8519H46.4817V80.3704ZM46.4817 78.8889H47.9632V80.3704H46.4817V78.8889ZM46.4817 77.4074H47.9632V78.8889H46.4817V77.4074ZM46.4817 75.9259H47.9632V77.4074H46.4817V75.9259ZM46.4817 74.4445H47.9632V75.9259H46.4817V74.4445ZM47.9632 74.4445H49.4447V75.9259H47.9632V74.4445ZM49.4447 74.4445H50.9262V75.9259H49.4447V74.4445ZM50.9262 74.4445H52.4077V75.9259H50.9262V74.4445ZM49.4447 75.9259H50.9262V77.4074H49.4447V75.9259ZM49.4447 77.4074H50.9262V78.8889H49.4447V77.4074ZM49.4447 78.8889H50.9262V80.3704H49.4447V78.8889ZM49.4447 80.3704H50.9262V81.8519H49.4447V80.3704ZM49.4447 81.8519H50.9262V83.3333H49.4447V81.8519ZM49.4447 83.3333H50.9262V84.8148H49.4447V83.3333ZM49.4447 84.8148H50.9262V86.2963H49.4447V84.8148ZM47.9632 84.8148H49.4447V86.2963H47.9632V84.8148ZM47.9632 83.3333H49.4447V84.8148H47.9632V83.3333ZM47.9632 81.8519H49.4447V83.3333H47.9632V81.8519ZM47.9632 80.3704H49.4447V81.8519H47.9632V80.3704ZM47.9632 78.8889H49.4447V80.3704H47.9632V78.8889ZM47.9632 77.4074H49.4447V78.8889H47.9632V77.4074ZM47.9632 75.9259H49.4447V77.4074H47.9632V75.9259ZM67.2181 70H68.6996V71.4815H67.2181V70ZM68.6996 70H70.1811V71.4815H68.6996V70ZM70.1811 70H71.6626V71.4815H70.1811V70ZM71.6626 70H73.1441V71.4815H71.6626V70ZM73.1441 70H74.6255V71.4815H73.1441V70ZM74.6255 70H76.107V71.4815H74.6255V70ZM74.6255 71.4815H76.107V72.963H74.6255V71.4815ZM76.107 71.4815H77.5885V72.963H76.107V71.4815ZM73.1441 71.4815H74.6255V72.963H73.1441V71.4815ZM71.6626 71.4815H73.1441V72.963H71.6626V71.4815ZM70.1811 71.4815H71.6626V72.963H70.1811V71.4815ZM68.6996 71.4815H70.1811V72.963H68.6996V71.4815ZM67.2181 71.4815H68.6996V72.963H67.2181V71.4815ZM65.7366 72.963H67.2181V74.4445H65.7366V72.963ZM65.7366 71.4815H67.2181V72.963H65.7366V71.4815ZM64.2552 72.963H65.7366V74.4445H64.2552V72.963ZM67.2181 72.963H68.6996V74.4445H67.2181V72.963ZM68.6996 72.963H70.1811V74.4445H68.6996V72.963ZM70.1811 72.963H71.6626V74.4445H70.1811V72.963ZM71.6626 72.963H73.1441V74.4445H71.6626V72.963ZM73.1441 72.963H74.6255V74.4445H73.1441V72.963ZM74.6255 72.963H76.107V74.4445H74.6255V72.963ZM76.107 72.963H77.5885V74.4445H76.107V72.963ZM77.5885 72.963H79.07V74.4445H77.5885V72.963ZM77.5885 74.4445H79.07V75.9259H77.5885V74.4445ZM76.107 74.4445H77.5885V75.9259H76.107V74.4445ZM74.6255 74.4445H76.107V75.9259H74.6255V74.4445ZM73.1441 74.4445H74.6255V75.9259H73.1441V74.4445ZM74.6255 75.9259H76.107V77.4074H74.6255V75.9259ZM74.6255 77.4074H76.107V78.8889H74.6255V77.4074ZM74.6255 78.8889H76.107V80.3704H74.6255V78.8889ZM74.6255 80.3704H76.107V81.8519H74.6255V80.3704ZM74.6255 81.8519H76.107V83.3333H74.6255V81.8519ZM76.107 80.3704H77.5885V81.8519H76.107V80.3704ZM77.5885 80.3704H79.07V81.8519H77.5885V80.3704ZM77.5885 78.8889H79.07V80.3704H77.5885V78.8889ZM77.5885 77.4074H79.07V78.8889H77.5885V77.4074ZM77.5885 75.9259H79.07V77.4074H77.5885V75.9259ZM76.107 75.9259H77.5885V77.4074H76.107V75.9259ZM76.107 77.4074H77.5885V78.8889H76.107V77.4074ZM76.107 78.8889H77.5885V80.3704H76.107V78.8889ZM76.107 81.8519H77.5885V83.3333H76.107V81.8519ZM76.107 83.3333H77.5885V84.8148H76.107V83.3333ZM77.5885 83.3333H79.07V84.8148H77.5885V83.3333ZM77.5885 81.8519H79.07V83.3333H77.5885V81.8519ZM77.5885 84.8148H79.07V86.2963H77.5885V84.8148ZM77.5885 86.2963H79.07V87.7778H77.5885V86.2963ZM77.5885 87.7778H79.07V89.2593H77.5885V87.7778ZM76.107 87.7778H77.5885V89.2593H76.107V87.7778ZM76.107 86.2963H77.5885V87.7778H76.107V86.2963ZM76.107 84.8148H77.5885V86.2963H76.107V84.8148ZM74.6255 83.3333H76.107V84.8148H74.6255V83.3333ZM74.6255 84.8148H76.107V86.2963H74.6255V84.8148ZM74.6255 86.2963H76.107V87.7778H74.6255V86.2963ZM73.1441 86.2963H74.6255V87.7778H73.1441V86.2963ZM74.6255 87.7778H76.107V89.2593H74.6255V87.7778ZM76.107 89.2593H77.5885V90.7407H76.107V89.2593ZM74.6255 89.2593H76.107V90.7407H74.6255V89.2593ZM73.1441 87.7778H74.6255V89.2593H73.1441V87.7778ZM73.1441 89.2593H74.6255V90.7407H73.1441V89.2593ZM74.6255 90.7407H76.107V92.2222H74.6255V90.7407ZM73.1441 90.7407H74.6255V92.2222H73.1441V90.7407ZM71.6626 90.7407H73.1441V92.2222H71.6626V90.7407ZM70.1811 90.7407H71.6626V92.2222H70.1811V90.7407ZM68.6996 90.7407H70.1811V92.2222H68.6996V90.7407ZM67.2181 90.7407H68.6996V92.2222H67.2181V90.7407ZM67.2181 89.2593H68.6996V90.7407H67.2181V89.2593ZM68.6996 89.2593H70.1811V90.7407H68.6996V89.2593ZM68.6996 87.7778H70.1811V89.2593H68.6996V87.7778ZM70.1811 87.7778H71.6626V89.2593H70.1811V87.7778ZM71.6626 87.7778H73.1441V89.2593H71.6626V87.7778ZM71.6626 89.2593H73.1441V90.7407H71.6626V89.2593ZM70.1811 89.2593H71.6626V90.7407H70.1811V89.2593ZM65.7366 89.2593H67.2181V90.7407H65.7366V89.2593ZM67.2181 87.7778H68.6996V89.2593H67.2181V87.7778ZM68.6996 86.2963H70.1811V87.7778H68.6996V86.2963ZM67.2181 86.2963H68.6996V87.7778H67.2181V86.2963ZM65.7366 86.2963H67.2181V87.7778H65.7366V86.2963ZM65.7366 87.7778H67.2181V89.2593H65.7366V87.7778ZM64.2552 87.7778H65.7366V89.2593H64.2552V87.7778ZM64.2552 86.2963H65.7366V87.7778H64.2552V86.2963ZM64.2552 84.8148H65.7366V86.2963H64.2552V84.8148ZM64.2552 83.3333H65.7366V84.8148H64.2552V83.3333ZM64.2552 81.8519H65.7366V83.3333H64.2552V81.8519ZM64.2552 80.3704H65.7366V81.8519H64.2552V80.3704ZM64.2552 78.8889H65.7366V80.3704H64.2552V78.8889ZM64.2552 77.4074H65.7366V78.8889H64.2552V77.4074ZM64.2552 75.9259H65.7366V77.4074H64.2552V75.9259ZM64.2552 74.4445H65.7366V75.9259H64.2552V74.4445ZM65.7366 74.4445H67.2181V75.9259H65.7366V74.4445ZM67.2181 74.4445H68.6996V75.9259H67.2181V74.4445ZM68.6996 74.4445H70.1811V75.9259H68.6996V74.4445ZM67.2181 75.9259H68.6996V77.4074H67.2181V75.9259ZM67.2181 77.4074H68.6996V78.8889H67.2181V77.4074ZM67.2181 78.8889H68.6996V80.3704H67.2181V78.8889ZM67.2181 80.3704H68.6996V81.8519H67.2181V80.3704ZM67.2181 81.8519H68.6996V83.3333H67.2181V81.8519ZM67.2181 83.3333H68.6996V84.8148H67.2181V83.3333ZM67.2181 84.8148H68.6996V86.2963H67.2181V84.8148ZM65.7366 84.8148H67.2181V86.2963H65.7366V84.8148ZM65.7366 83.3333H67.2181V84.8148H65.7366V83.3333ZM65.7366 81.8519H67.2181V83.3333H65.7366V81.8519ZM65.7366 80.3704H67.2181V81.8519H65.7366V80.3704ZM65.7366 78.8889H67.2181V80.3704H65.7366V78.8889ZM65.7366 77.4074H67.2181V78.8889H65.7366V77.4074ZM65.7366 75.9259H67.2181V77.4074H65.7366V75.9259ZM84.9916 70H86.473V71.4815H84.9916V70ZM86.473 70H87.9545V71.4815H86.473V70ZM87.9545 70H89.436V71.4815H87.9545V70ZM89.436 70H90.9175V71.4815H89.436V70ZM90.9175 70H92.399V71.4815H90.9175V70ZM92.399 70H93.8805V71.4815H92.399V70ZM92.399 71.4815H93.8805V72.963H92.399V71.4815ZM93.8805 71.4815H95.3619V72.963H93.8805V71.4815ZM90.9175 71.4815H92.399V72.963H90.9175V71.4815ZM89.436 71.4815H90.9175V72.963H89.436V71.4815ZM87.9545 71.4815H89.436V72.963H87.9545V71.4815ZM86.473 71.4815H87.9545V72.963H86.473V71.4815ZM84.9916 71.4815H86.473V72.963H84.9916V71.4815ZM83.5101 72.963H84.9916V74.4445H83.5101V72.963ZM83.5101 71.4815H84.9916V72.963H83.5101V71.4815ZM82.0286 72.963H83.5101V74.4445H82.0286V72.963ZM84.9916 72.963H86.473V74.4445H84.9916V72.963ZM86.473 72.963H87.9545V74.4445H86.473V72.963ZM87.9545 72.963H89.436V74.4445H87.9545V72.963ZM89.436 72.963H90.9175V74.4445H89.436V72.963ZM90.9175 72.963H92.399V74.4445H90.9175V72.963ZM92.399 72.963H93.8805V74.4445H92.399V72.963ZM93.8805 72.963H95.3619V74.4445H93.8805V72.963ZM95.3619 72.963H96.8434V74.4445H95.3619V72.963ZM95.3619 74.4445H96.8434V75.9259H95.3619V74.4445ZM93.8805 74.4445H95.3619V75.9259H93.8805V74.4445ZM92.399 74.4445H93.8805V75.9259H92.399V74.4445ZM90.9175 74.4445H92.399V75.9259H90.9175V74.4445ZM92.399 75.9259H93.8805V77.4074H92.399V75.9259ZM95.3619 75.9259H96.8434V77.4074H95.3619V75.9259ZM93.8805 75.9259H95.3619V77.4074H93.8805V75.9259ZM95.3619 84.8148H96.8434V86.2963H95.3619V84.8148ZM95.3619 86.2963H96.8434V87.7778H95.3619V86.2963ZM95.3619 87.7778H96.8434V89.2593H95.3619V87.7778ZM93.8805 87.7778H95.3619V89.2593H93.8805V87.7778ZM93.8805 86.2963H95.3619V87.7778H93.8805V86.2963ZM93.8805 84.8148H95.3619V86.2963H93.8805V84.8148ZM92.399 84.8148H93.8805V86.2963H92.399V84.8148ZM92.399 86.2963H93.8805V87.7778H92.399V86.2963ZM90.9175 86.2963H92.399V87.7778H90.9175V86.2963ZM92.399 87.7778H93.8805V89.2593H92.399V87.7778ZM93.8805 89.2593H95.3619V90.7407H93.8805V89.2593ZM92.399 89.2593H93.8805V90.7407H92.399V89.2593ZM90.9175 87.7778H92.399V89.2593H90.9175V87.7778ZM90.9175 89.2593H92.399V90.7407H90.9175V89.2593ZM92.399 90.7407H93.8805V92.2222H92.399V90.7407ZM90.9175 90.7407H92.399V92.2222H90.9175V90.7407ZM89.436 90.7407H90.9175V92.2222H89.436V90.7407ZM87.9545 90.7407H89.436V92.2222H87.9545V90.7407ZM86.473 90.7407H87.9545V92.2222H86.473V90.7407ZM84.9916 90.7407H86.473V92.2222H84.9916V90.7407ZM84.9916 89.2593H86.473V90.7407H84.9916V89.2593ZM86.473 89.2593H87.9545V90.7407H86.473V89.2593ZM86.473 87.7778H87.9545V89.2593H86.473V87.7778ZM87.9545 87.7778H89.436V89.2593H87.9545V87.7778ZM89.436 87.7778H90.9175V89.2593H89.436V87.7778ZM89.436 89.2593H90.9175V90.7407H89.436V89.2593ZM87.9545 89.2593H89.436V90.7407H87.9545V89.2593ZM83.5101 89.2593H84.9916V90.7407H83.5101V89.2593ZM84.9916 87.7778H86.473V89.2593H84.9916V87.7778ZM86.473 86.2963H87.9545V87.7778H86.473V86.2963ZM84.9916 86.2963H86.473V87.7778H84.9916V86.2963ZM83.5101 86.2963H84.9916V87.7778H83.5101V86.2963ZM83.5101 87.7778H84.9916V89.2593H83.5101V87.7778ZM82.0286 87.7778H83.5101V89.2593H82.0286V87.7778ZM82.0286 86.2963H83.5101V87.7778H82.0286V86.2963ZM82.0286 84.8148H83.5101V86.2963H82.0286V84.8148ZM82.0286 83.3333H83.5101V84.8148H82.0286V83.3333ZM82.0286 81.8519H83.5101V83.3333H82.0286V81.8519ZM82.0286 80.3704H83.5101V81.8519H82.0286V80.3704ZM82.0286 78.8889H83.5101V80.3704H82.0286V78.8889ZM82.0286 77.4074H83.5101V78.8889H82.0286V77.4074ZM82.0286 75.9259H83.5101V77.4074H82.0286V75.9259ZM82.0286 74.4445H83.5101V75.9259H82.0286V74.4445ZM83.5101 74.4445H84.9916V75.9259H83.5101V74.4445ZM84.9916 74.4445H86.473V75.9259H84.9916V74.4445ZM86.473 74.4445H87.9545V75.9259H86.473V74.4445ZM84.9916 75.9259H86.473V77.4074H84.9916V75.9259ZM84.9916 77.4074H86.473V78.8889H84.9916V77.4074ZM84.9916 78.8889H86.473V80.3704H84.9916V78.8889ZM84.9916 80.3704H86.473V81.8519H84.9916V80.3704ZM84.9916 81.8519H86.473V83.3333H84.9916V81.8519ZM84.9916 83.3333H86.473V84.8148H84.9916V83.3333ZM84.9916 84.8148H86.473V86.2963H84.9916V84.8148ZM83.5101 84.8148H84.9916V86.2963H83.5101V84.8148ZM83.5101 83.3333H84.9916V84.8148H83.5101V83.3333ZM83.5101 81.8519H84.9916V83.3333H83.5101V81.8519ZM83.5101 80.3704H84.9916V81.8519H83.5101V80.3704ZM83.5101 78.8889H84.9916V80.3704H83.5101V78.8889ZM83.5101 77.4074H84.9916V78.8889H83.5101V77.4074ZM83.5101 75.9259H84.9916V77.4074H83.5101V75.9259ZM105.728 70H107.209V71.4815H105.728V70ZM107.209 70H108.691V71.4815H107.209V70ZM107.209 71.4815H108.691V72.963H107.209V71.4815ZM108.691 71.4815H110.172V72.963H108.691V71.4815ZM105.728 71.4815H107.209V72.963H105.728V71.4815ZM104.246 71.4815H105.728V72.963H104.246V71.4815ZM104.246 72.963H105.728V74.4445H104.246V72.963ZM102.765 72.963H104.246V74.4445H102.765V72.963ZM105.728 72.963H107.209V74.4445H105.728V72.963ZM107.209 72.963H108.691V74.4445H107.209V72.963ZM108.691 72.963H110.172V74.4445H108.691V72.963ZM110.172 72.963H111.654V74.4445H110.172V72.963ZM110.172 74.4445H111.654V75.9259H110.172V74.4445ZM111.654 74.4445H113.135V75.9259H111.654V74.4445ZM108.691 74.4445H110.172V75.9259H108.691V74.4445ZM107.209 74.4445H108.691V75.9259H107.209V74.4445ZM105.728 74.4445H107.209V75.9259H105.728V74.4445ZM104.246 74.4445H105.728V75.9259H104.246V74.4445ZM102.765 74.4445H104.246V75.9259H102.765V74.4445ZM101.284 74.4445H102.765V75.9259H101.284V74.4445ZM104.246 75.9259H105.728V77.4074H104.246V75.9259ZM102.765 75.9259H104.246V77.4074H102.765V75.9259ZM101.284 75.9259H102.765V77.4074H101.284V75.9259ZM99.802 75.9259H101.284V77.4074H99.802V75.9259ZM99.802 77.4074H101.284V78.8889H99.802V77.4074ZM99.802 78.8889H101.284V80.3704H99.802V78.8889ZM101.284 78.8889H102.765V80.3704H101.284V78.8889ZM101.284 77.4074H102.765V78.8889H101.284V77.4074ZM102.765 77.4074H104.246V78.8889H102.765V77.4074ZM102.765 78.8889H104.246V80.3704H102.765V78.8889ZM102.765 80.3704H104.246V81.8519H102.765V80.3704ZM101.284 80.3704H102.765V81.8519H101.284V80.3704ZM99.802 80.3704H101.284V81.8519H99.802V80.3704ZM99.802 81.8519H101.284V83.3333H99.802V81.8519ZM101.284 81.8519H102.765V83.3333H101.284V81.8519ZM102.765 81.8519H104.246V83.3333H102.765V81.8519ZM104.246 81.8519H105.728V83.3333H104.246V81.8519ZM105.728 81.8519H107.209V83.3333H105.728V81.8519ZM107.209 81.8519H108.691V83.3333H107.209V81.8519ZM108.691 81.8519H110.172V83.3333H108.691V81.8519ZM110.172 80.3704H111.654V81.8519H110.172V80.3704ZM111.654 80.3704H113.135V81.8519H111.654V80.3704ZM111.654 81.8519H113.135V83.3333H111.654V81.8519ZM110.172 81.8519H111.654V83.3333H110.172V81.8519ZM113.135 81.8519H114.617V83.3333H113.135V81.8519ZM113.135 80.3704H114.617V81.8519H113.135V80.3704ZM113.135 78.8889H114.617V80.3704H113.135V78.8889ZM113.135 77.4074H114.617V78.8889H113.135V77.4074ZM113.135 75.9259H114.617V77.4074H113.135V75.9259ZM111.654 75.9259H113.135V77.4074H111.654V75.9259ZM110.172 75.9259H111.654V77.4074H110.172V75.9259ZM108.691 75.9259H110.172V77.4074H108.691V75.9259ZM111.654 77.4074H113.135V78.8889H111.654V77.4074ZM111.654 78.8889H113.135V80.3704H111.654V78.8889ZM110.172 78.8889H111.654V80.3704H110.172V78.8889ZM110.172 77.4074H111.654V78.8889H110.172V77.4074ZM99.802 83.3333H101.284V84.8148H99.802V83.3333ZM101.284 83.3333H102.765V84.8148H101.284V83.3333ZM102.765 83.3333H104.246V84.8148H102.765V83.3333ZM104.246 83.3333H105.728V84.8148H104.246V83.3333ZM105.728 83.3333H107.209V84.8148H105.728V83.3333ZM107.209 83.3333H108.691V84.8148H107.209V83.3333ZM108.691 83.3333H110.172V84.8148H108.691V83.3333ZM110.172 83.3333H111.654V84.8148H110.172V83.3333ZM111.654 83.3333H113.135V84.8148H111.654V83.3333ZM113.135 83.3333H114.617V84.8148H113.135V83.3333ZM113.135 84.8148H114.617V86.2963H113.135V84.8148ZM111.654 84.8148H113.135V86.2963H111.654V84.8148ZM110.172 84.8148H111.654V86.2963H110.172V84.8148ZM108.691 84.8148H110.172V86.2963H108.691V84.8148ZM107.209 84.8148H108.691V86.2963H107.209V84.8148ZM105.728 84.8148H107.209V86.2963H105.728V84.8148ZM104.246 84.8148H105.728V86.2963H104.246V84.8148ZM101.284 84.8148H102.765V86.2963H101.284V84.8148ZM99.802 84.8148H101.284V86.2963H99.802V84.8148ZM102.765 84.8148H104.246V86.2963H102.765V84.8148ZM102.765 86.2963H104.246V87.7778H102.765V86.2963ZM102.765 87.7778H104.246V89.2593H102.765V87.7778ZM102.765 89.2593H104.246V90.7407H102.765V89.2593ZM102.765 90.7407H104.246V92.2222H102.765V90.7407ZM101.284 90.7407H102.765V92.2222H101.284V90.7407ZM99.802 90.7407H101.284V92.2222H99.802V90.7407ZM99.802 89.2593H101.284V90.7407H99.802V89.2593ZM99.802 87.7778H101.284V89.2593H99.802V87.7778ZM99.802 86.2963H101.284V87.7778H99.802V86.2963ZM101.284 86.2963H102.765V87.7778H101.284V86.2963ZM101.284 87.7778H102.765V89.2593H101.284V87.7778ZM101.284 89.2593H102.765V90.7407H101.284V89.2593ZM110.172 86.2963H111.654V87.7778H110.172V86.2963ZM110.172 87.7778H111.654V89.2593H110.172V87.7778ZM110.172 89.2593H111.654V90.7407H110.172V89.2593ZM110.172 90.7407H111.654V92.2222H110.172V90.7407ZM111.654 90.7407H113.135V92.2222H111.654V90.7407ZM113.135 90.7407H114.617V92.2222H113.135V90.7407ZM113.135 89.2593H114.617V90.7407H113.135V89.2593ZM113.135 87.7778H114.617V89.2593H113.135V87.7778ZM113.135 86.2963H114.617V87.7778H113.135V86.2963ZM111.654 86.2963H113.135V87.7778H111.654V86.2963ZM111.654 87.7778H113.135V89.2593H111.654V87.7778ZM111.654 89.2593H113.135V90.7407H111.654V89.2593ZM129.427 70H130.909V71.4815H129.427V70ZM127.946 70H129.427V71.4815H127.946V70ZM126.464 70H127.946V71.4815H126.464V70ZM123.501 70H124.983V71.4815H123.501V70ZM122.02 70H123.501V71.4815H122.02V70ZM120.538 70H122.02V71.4815H120.538V70ZM124.983 70H126.464V71.4815H124.983V70ZM124.983 71.4815H126.464V72.963H124.983V71.4815ZM126.464 71.4815H127.946V72.963H126.464V71.4815ZM127.946 71.4815H129.427V72.963H127.946V71.4815ZM129.427 71.4815H130.909V72.963H129.427V71.4815ZM130.909 71.4815H132.39V72.963H130.909V71.4815ZM123.501 71.4815H124.983V72.963H123.501V71.4815ZM122.02 71.4815H123.501V72.963H122.02V71.4815ZM120.538 71.4815H122.02V72.963H120.538V71.4815ZM119.057 71.4815H120.538V72.963H119.057V71.4815ZM117.575 72.963H119.057V74.4445H117.575V72.963ZM119.057 72.963H120.538V74.4445H119.057V72.963ZM120.538 72.963H122.02V74.4445H120.538V72.963ZM122.02 72.963H123.501V74.4445H122.02V72.963ZM123.501 72.963H124.983V74.4445H123.501V72.963ZM124.983 72.963H126.464V74.4445H124.983V72.963ZM126.464 72.963H127.946V74.4445H126.464V72.963ZM127.946 72.963H129.427V74.4445H127.946V72.963ZM129.427 72.963H130.909V74.4445H129.427V72.963ZM130.909 72.963H132.39V74.4445H130.909V72.963ZM132.39 72.963H133.872V74.4445H132.39V72.963ZM132.39 74.4445H133.872V75.9259H132.39V74.4445ZM132.39 75.9259H133.872V77.4074H132.39V75.9259ZM130.909 75.9259H132.39V77.4074H130.909V75.9259ZM130.909 74.4445H132.39V75.9259H130.909V74.4445ZM129.427 75.9259H130.909V77.4074H129.427V75.9259ZM129.427 74.4445H130.909V75.9259H129.427V74.4445ZM127.946 74.4445H129.427V75.9259H127.946V74.4445ZM122.02 74.4445H123.501V75.9259H122.02V74.4445ZM120.538 74.4445H122.02V75.9259H120.538V74.4445ZM119.057 74.4445H120.538V75.9259H119.057V74.4445ZM117.575 74.4445H119.057V75.9259H117.575V74.4445ZM117.575 75.9259H119.057V77.4074H117.575V75.9259ZM119.057 75.9259H120.538V77.4074H119.057V75.9259ZM119.057 77.4074H120.538V78.8889H119.057V77.4074ZM120.538 75.9259H122.02V77.4074H120.538V75.9259ZM120.538 77.4074H122.02V78.8889H120.538V77.4074ZM122.02 77.4074H123.501V78.8889H122.02V77.4074ZM117.575 77.4074H119.057V78.8889H117.575V77.4074ZM117.575 78.8889H119.057V80.3704H117.575V78.8889ZM119.057 78.8889H120.538V80.3704H119.057V78.8889ZM119.057 80.3704H120.538V81.8519H119.057V80.3704ZM120.538 80.3704H122.02V81.8519H120.538V80.3704ZM120.538 78.8889H122.02V80.3704H120.538V78.8889ZM122.02 78.8889H123.501V80.3704H122.02V78.8889ZM122.02 80.3704H123.501V81.8519H122.02V80.3704ZM120.538 81.8519H122.02V83.3333H120.538V81.8519ZM122.02 81.8519H123.501V83.3333H122.02V81.8519ZM123.501 81.8519H124.983V83.3333H123.501V81.8519ZM124.983 81.8519H126.464V83.3333H124.983V81.8519ZM126.464 81.8519H127.946V83.3333H126.464V81.8519ZM126.464 80.3704H127.946V81.8519H126.464V80.3704ZM127.946 80.3704H129.427V81.8519H127.946V80.3704ZM129.427 80.3704H130.909V81.8519H129.427V80.3704ZM129.427 78.8889H130.909V80.3704H129.427V78.8889ZM127.946 78.8889H129.427V80.3704H127.946V78.8889ZM126.464 78.8889H127.946V80.3704H126.464V78.8889ZM124.983 78.8889H126.464V80.3704H124.983V78.8889ZM124.983 80.3704H126.464V81.8519H124.983V80.3704ZM123.501 80.3704H124.983V81.8519H123.501V80.3704ZM123.501 78.8889H124.983V80.3704H123.501V78.8889ZM130.909 80.3704H132.39V81.8519H130.909V80.3704ZM130.909 81.8519H132.39V83.3333H130.909V81.8519ZM129.427 81.8519H130.909V83.3333H129.427V81.8519ZM129.427 83.3333H130.909V84.8148H129.427V83.3333ZM127.946 83.3333H129.427V84.8148H127.946V83.3333ZM127.946 81.8519H129.427V83.3333H127.946V81.8519ZM130.909 83.3333H132.39V84.8148H130.909V83.3333ZM132.39 83.3333H133.872V84.8148H132.39V83.3333ZM132.39 81.8519H133.872V83.3333H132.39V81.8519ZM132.39 84.8148H133.872V86.2963H132.39V84.8148ZM132.39 86.2963H133.872V87.7778H132.39V86.2963ZM132.39 87.7778H133.872V89.2593H132.39V87.7778ZM130.909 87.7778H132.39V89.2593H130.909V87.7778ZM130.909 89.2593H132.39V90.7407H130.909V89.2593ZM129.427 89.2593H130.909V90.7407H129.427V89.2593ZM129.427 87.7778H130.909V89.2593H129.427V87.7778ZM127.946 87.7778H129.427V89.2593H127.946V87.7778ZM127.946 86.2963H129.427V87.7778H127.946V86.2963ZM129.427 86.2963H130.909V87.7778H129.427V86.2963ZM129.427 84.8148H130.909V86.2963H129.427V84.8148ZM130.909 84.8148H132.39V86.2963H130.909V84.8148ZM130.909 86.2963H132.39V87.7778H130.909V86.2963ZM117.575 84.8148H119.057V86.2963H117.575V84.8148ZM117.575 86.2963H119.057V87.7778H117.575V86.2963ZM119.057 86.2963H120.538V87.7778H119.057V86.2963ZM119.057 84.8148H120.538V86.2963H119.057V84.8148ZM120.538 84.8148H122.02V86.2963H120.538V84.8148ZM120.538 86.2963H122.02V87.7778H120.538V86.2963ZM117.575 87.7778H119.057V89.2593H117.575V87.7778ZM119.057 87.7778H120.538V89.2593H119.057V87.7778ZM122.02 86.2963H123.501V87.7778H122.02V86.2963ZM122.02 87.7778H123.501V89.2593H122.02V87.7778ZM120.538 87.7778H122.02V89.2593H120.538V87.7778ZM120.538 89.2593H122.02V90.7407H120.538V89.2593ZM119.057 89.2593H120.538V90.7407H119.057V89.2593ZM120.538 90.7407H122.02V92.2222H120.538V90.7407ZM122.02 90.7407H123.501V92.2222H122.02V90.7407ZM123.501 90.7407H124.983V92.2222H123.501V90.7407ZM124.983 90.7407H126.464V92.2222H124.983V90.7407ZM126.464 90.7407H127.946V92.2222H126.464V90.7407ZM127.946 90.7407H129.427V92.2222H127.946V90.7407ZM129.427 90.7407H130.909V92.2222H129.427V90.7407ZM127.946 89.2593H129.427V90.7407H127.946V89.2593ZM126.464 89.2593H127.946V90.7407H126.464V89.2593ZM124.983 89.2593H126.464V90.7407H124.983V89.2593ZM124.983 87.7778H126.464V89.2593H124.983V87.7778ZM123.501 87.7778H124.983V89.2593H123.501V87.7778ZM126.464 87.7778H127.946V89.2593H126.464V87.7778ZM123.501 89.2593H124.983V90.7407H123.501V89.2593ZM122.02 89.2593H123.501V90.7407H122.02V89.2593ZM141.278 78.8889H142.759V80.3704H141.278V78.8889ZM142.759 78.8889H144.241V80.3704H142.759V78.8889ZM144.241 78.8889H145.722V80.3704H144.241V78.8889ZM145.722 78.8889H147.204V80.3704H145.722V78.8889ZM147.204 78.8889H148.685V80.3704H147.204V78.8889ZM147.204 80.3704H148.685V81.8519H147.204V80.3704ZM147.204 81.8519H148.685V83.3333H147.204V81.8519ZM145.722 81.8519H147.204V83.3333H145.722V81.8519ZM144.241 81.8519H145.722V83.3333H144.241V81.8519ZM142.759 81.8519H144.241V83.3333H142.759V81.8519ZM141.278 81.8519H142.759V83.3333H141.278V81.8519ZM139.796 81.8519H141.278V83.3333H139.796V81.8519ZM138.315 81.8519H139.796V83.3333H138.315V81.8519ZM139.796 80.3704H141.278V81.8519H139.796V80.3704ZM141.278 80.3704H142.759V81.8519H141.278V80.3704ZM142.759 80.3704H144.241V81.8519H142.759V80.3704ZM144.241 80.3704H145.722V81.8519H144.241V80.3704ZM145.722 80.3704H147.204V81.8519H145.722V80.3704ZM139.796 78.8889H141.278V80.3704H139.796V78.8889ZM139.796 77.4074H141.278V78.8889H139.796V77.4074ZM139.796 75.9259H141.278V77.4074H139.796V75.9259ZM139.796 74.4445H141.278V75.9259H139.796V74.4445ZM139.796 72.963H141.278V74.4445H139.796V72.963ZM138.315 71.4815H139.796V72.963H138.315V71.4815ZM138.315 70H139.796V71.4815H138.315V70ZM139.796 70H141.278V71.4815H139.796V70ZM139.796 71.4815H141.278V72.963H139.796V71.4815ZM136.833 70H138.315V71.4815H136.833V70ZM136.833 71.4815H138.315V72.963H136.833V71.4815ZM136.833 72.963H138.315V74.4445H136.833V72.963ZM136.833 74.4445H138.315V75.9259H136.833V74.4445ZM136.833 75.9259H138.315V77.4074H136.833V75.9259ZM136.833 77.4074H138.315V78.8889H136.833V77.4074ZM136.833 78.8889H138.315V80.3704H136.833V78.8889ZM136.833 80.3704H138.315V81.8519H136.833V80.3704ZM136.833 81.8519H138.315V83.3333H136.833V81.8519ZM138.315 80.3704H139.796V81.8519H138.315V80.3704ZM138.315 78.8889H139.796V80.3704H138.315V78.8889ZM138.315 77.4074H139.796V78.8889H138.315V77.4074ZM138.315 75.9259H139.796V77.4074H138.315V75.9259ZM138.315 74.4445H139.796V75.9259H138.315V74.4445ZM138.315 72.963H139.796V74.4445H138.315V72.963ZM138.315 83.3333H139.796V84.8148H138.315V83.3333ZM138.315 84.8148H139.796V86.2963H138.315V84.8148ZM138.315 86.2963H139.796V87.7778H138.315V86.2963ZM138.315 87.7778H139.796V89.2593H138.315V87.7778ZM136.833 86.2963H138.315V87.7778H136.833V86.2963ZM136.833 84.8148H138.315V86.2963H136.833V84.8148ZM136.833 83.3333H138.315V84.8148H136.833V83.3333ZM139.796 86.2963H141.278V87.7778H139.796V86.2963ZM139.796 87.7778H141.278V89.2593H139.796V87.7778ZM139.796 84.8148H141.278V86.2963H139.796V84.8148ZM139.796 83.3333H141.278V84.8148H139.796V83.3333ZM139.796 89.2593H141.278V90.7407H139.796V89.2593ZM139.796 90.7407H141.278V92.2222H139.796V90.7407ZM138.315 90.7407H139.796V92.2222H138.315V90.7407ZM138.315 89.2593H139.796V90.7407H138.315V89.2593ZM136.833 89.2593H138.315V90.7407H136.833V89.2593ZM136.833 87.7778H138.315V89.2593H136.833V87.7778ZM136.833 90.7407H138.315V92.2222H136.833V90.7407ZM147.204 70H148.685V71.4815H147.204V70ZM148.685 70H150.167V71.4815H148.685V70ZM150.167 70H151.648V71.4815H150.167V70ZM150.167 71.4815H151.648V72.963H150.167V71.4815ZM150.167 72.963H151.648V74.4445H150.167V72.963ZM150.167 74.4445H151.648V75.9259H150.167V74.4445ZM150.167 75.9259H151.648V77.4074H150.167V75.9259ZM150.167 77.4074H151.648V78.8889H150.167V77.4074ZM148.685 77.4074H150.167V78.8889H148.685V77.4074ZM148.685 75.9259H150.167V77.4074H148.685V75.9259ZM148.685 74.4445H150.167V75.9259H148.685V74.4445ZM148.685 72.963H150.167V74.4445H148.685V72.963ZM148.685 71.4815H150.167V72.963H148.685V71.4815ZM147.204 71.4815H148.685V72.963H147.204V71.4815ZM147.204 72.963H148.685V74.4445H147.204V72.963ZM147.204 74.4445H148.685V75.9259H147.204V74.4445ZM147.204 75.9259H148.685V77.4074H147.204V75.9259ZM147.204 77.4074H148.685V78.8889H147.204V77.4074ZM147.204 83.3333H148.685V84.8148H147.204V83.3333ZM148.685 83.3333H150.167V84.8148H148.685V83.3333ZM148.685 84.8148H150.167V86.2963H148.685V84.8148ZM148.685 86.2963H150.167V87.7778H148.685V86.2963ZM148.685 87.7778H150.167V89.2593H148.685V87.7778ZM147.204 87.7778H148.685V89.2593H147.204V87.7778ZM147.204 86.2963H148.685V87.7778H147.204V86.2963ZM147.204 84.8148H148.685V86.2963H147.204V84.8148ZM147.204 89.2593H148.685V90.7407H147.204V89.2593ZM147.204 90.7407H148.685V92.2222H147.204V90.7407ZM148.685 90.7407H150.167V92.2222H148.685V90.7407ZM150.167 90.7407H151.648V92.2222H150.167V90.7407ZM150.167 89.2593H151.648V90.7407H150.167V89.2593ZM150.167 87.7778H151.648V89.2593H150.167V87.7778ZM150.167 86.2963H151.648V87.7778H150.167V86.2963ZM150.167 84.8148H151.648V86.2963H150.167V84.8148ZM150.167 83.3333H151.648V84.8148H150.167V83.3333ZM150.167 81.8519H151.648V83.3333H150.167V81.8519ZM150.167 80.3704H151.648V81.8519H150.167V80.3704ZM148.685 80.3704H150.167V81.8519H148.685V80.3704ZM148.685 78.8889H150.167V80.3704H148.685V78.8889ZM150.167 78.8889H151.648V80.3704H150.167V78.8889ZM148.685 81.8519H150.167V83.3333H148.685V81.8519ZM148.685 89.2593H150.167V90.7407H148.685V89.2593Z" fill="#1ADB72"/>
</svg>
