<svg width="170" height="106" viewBox="0 0 170 106" fill="none" xmlns="http://www.w3.org/2000/svg">
<path d="M27.7037 62.3333C69.1035 62.3333 72.4348 27.115 72.7015 10.3785C72.7039 9.92322 72.615 9.47208 72.44 9.05179C72.265 8.63149 72.0075 8.25056 71.6827 7.93155C71.3578 7.61254 70.9723 7.36193 70.5489 7.19455C70.1256 7.02717 69.6729 6.94642 69.2177 6.95708C10.3889 8.03752 10.3889 36.5585 10.3889 62.3333V76.1852" stroke="white" stroke-width="9.16667" stroke-linecap="round" stroke-linejoin="round"/>
<path d="M10.3889 62.3333C10.3889 62.3333 10.3889 41.5556 38.0926 38.0926" stroke="white" stroke-width="9.16667" stroke-linecap="round" stroke-linejoin="round"/>
<path d="M31.6741 69.2222H33.1556V70.7037H31.6741V69.2222ZM31.6741 70.7037H33.1556V72.1852H31.6741V70.7037ZM31.6741 72.1852H33.1556V73.6667H31.6741V72.1852ZM31.6741 73.6667H33.1556V75.1482H31.6741V73.6667ZM31.6741 75.1482H33.1556V76.6296H31.6741V75.1482ZM31.6741 76.6296H33.1556V78.1111H31.6741V76.6296ZM31.6741 78.1111H33.1556V79.5926H31.6741V78.1111ZM31.6741 79.5926H33.1556V81.0741H31.6741V79.5926ZM31.6741 81.0741H33.1556V82.5556H31.6741V81.0741ZM31.6741 82.5556H33.1556V84.0371H31.6741V82.5556ZM31.6741 84.0371H33.1556V85.5185H31.6741V84.0371ZM31.6741 85.5185H33.1556V87H31.6741V85.5185ZM31.6741 87H33.1556V88.4815H31.6741V87ZM31.6741 88.4815H33.1556V89.963H31.6741V88.4815ZM31.6741 89.963H33.1556V91.4445H31.6741V89.963ZM30.1927 89.963H31.6741V91.4445H30.1927V89.963ZM30.1927 88.4815H31.6741V89.963H30.1927V88.4815ZM30.1927 87H31.6741V88.4815H30.1927V87ZM30.1927 70.7037H31.6741V72.1852H30.1927V70.7037ZM30.1927 69.2222H31.6741V70.7037H30.1927V69.2222ZM30.1927 72.1852H31.6741V73.6667H30.1927V72.1852ZM30.1927 73.6667H31.6741V75.1482H30.1927V73.6667ZM30.1927 75.1482H31.6741V76.6296H30.1927V75.1482ZM30.1927 76.6296H31.6741V78.1111H30.1927V76.6296ZM30.1927 78.1111H31.6741V79.5926H30.1927V78.1111ZM30.1927 79.5926H31.6741V81.0741H30.1927V79.5926ZM30.1927 81.0741H31.6741V82.5556H30.1927V81.0741ZM30.1927 82.5556H31.6741V84.0371H30.1927V82.5556ZM30.1927 84.0371H31.6741V85.5185H30.1927V84.0371ZM30.1927 85.5185H31.6741V87H30.1927V85.5185ZM33.1556 89.963H34.6371V91.4445H33.1556V89.963ZM33.1556 88.4815H34.6371V89.963H33.1556V88.4815ZM33.1556 87H34.6371V88.4815H33.1556V87ZM33.1556 85.5185H34.6371V87H33.1556V85.5185ZM33.1556 82.5556H34.6371V84.0371H33.1556V82.5556ZM33.1556 81.0741H34.6371V82.5556H33.1556V81.0741ZM33.1556 79.5926H34.6371V81.0741H33.1556V79.5926ZM33.1556 78.1111H34.6371V79.5926H33.1556V78.1111ZM33.1556 76.6296H34.6371V78.1111H33.1556V76.6296ZM33.1556 75.1482H34.6371V76.6296H33.1556V75.1482ZM33.1556 69.2222H34.6371V70.7037H33.1556V69.2222ZM33.1556 70.7037H34.6371V72.1852H33.1556V70.7037ZM33.1556 72.1852H34.6371V73.6667H33.1556V72.1852ZM33.1556 73.6667H34.6371V75.1482H33.1556V73.6667ZM33.1556 84.0371H34.6371V85.5185H33.1556V84.0371ZM34.6371 89.963H36.1186V91.4445H34.6371V89.963ZM36.1186 89.963H37.6001V91.4445H36.1186V89.963ZM37.6001 89.963H39.0816V91.4445H37.6001V89.963ZM37.6001 88.4815H39.0816V89.963H37.6001V88.4815ZM37.6001 87H39.0816V88.4815H37.6001V87ZM36.1186 87H37.6001V88.4815H36.1186V87ZM36.1186 88.4815H37.6001V89.963H36.1186V88.4815ZM34.6371 88.4815H36.1186V89.963H34.6371V88.4815ZM34.6371 87H36.1186V88.4815H34.6371V87ZM39.0816 87H40.563V88.4815H39.0816V87ZM39.0816 88.4815H40.563V89.963H39.0816V88.4815ZM39.0816 89.963H40.563V91.4445H39.0816V89.963ZM40.563 89.963H42.0445V91.4445H40.563V89.963ZM40.563 88.4815H42.0445V89.963H40.563V88.4815ZM40.563 87H42.0445V88.4815H40.563V87ZM42.0445 87H43.526V88.4815H42.0445V87ZM42.0445 88.4815H43.526V89.963H42.0445V88.4815ZM42.0445 89.963H43.526V91.4445H42.0445V89.963ZM34.6371 69.2222H36.1186V70.7037H34.6371V69.2222ZM36.1186 69.2222H37.6001V70.7037H36.1186V69.2222ZM37.6001 69.2222H39.0816V70.7037H37.6001V69.2222ZM39.0816 69.2222H40.563V70.7037H39.0816V69.2222ZM40.563 69.2222H42.0445V70.7037H40.563V69.2222ZM42.0445 69.2222H43.526V70.7037H42.0445V69.2222ZM42.0445 70.7037H43.526V72.1852H42.0445V70.7037ZM42.0445 72.1852H43.526V73.6667H42.0445V72.1852ZM40.563 72.1852H42.0445V73.6667H40.563V72.1852ZM39.0816 72.1852H40.563V73.6667H39.0816V72.1852ZM37.6001 72.1852H39.0816V73.6667H37.6001V72.1852ZM36.1186 72.1852H37.6001V73.6667H36.1186V72.1852ZM36.1186 70.7037H37.6001V72.1852H36.1186V70.7037ZM34.6371 70.7037H36.1186V72.1852H34.6371V70.7037ZM34.6371 72.1852H36.1186V73.6667H34.6371V72.1852ZM37.6001 70.7037H39.0816V72.1852H37.6001V70.7037ZM39.0816 70.7037H40.563V72.1852H39.0816V70.7037ZM40.563 70.7037H42.0445V72.1852H40.563V70.7037ZM34.6371 78.1111H36.1186V79.5926H34.6371V78.1111ZM34.6371 79.5926H36.1186V81.0741H34.6371V79.5926ZM34.6371 81.0741H36.1186V82.5556H34.6371V81.0741ZM36.1186 81.0741H37.6001V82.5556H36.1186V81.0741ZM36.1186 79.5926H37.6001V81.0741H36.1186V79.5926ZM36.1186 78.1111H37.6001V79.5926H36.1186V78.1111ZM37.6001 78.1111H39.0816V79.5926H37.6001V78.1111ZM37.6001 79.5926H39.0816V81.0741H37.6001V79.5926ZM39.0816 79.5926H40.563V81.0741H39.0816V79.5926ZM39.0816 78.1111H40.563V79.5926H39.0816V78.1111ZM39.0816 81.0741H40.563V82.5556H39.0816V81.0741ZM37.6001 81.0741H39.0816V82.5556H37.6001V81.0741ZM40.563 78.1111H42.0445V79.5926H40.563V78.1111ZM40.563 79.5926H42.0445V81.0741H40.563V79.5926ZM40.563 81.0741H42.0445V82.5556H40.563V81.0741ZM49.4447 69.2222H50.9262V70.7037H49.4447V69.2222ZM50.9262 69.2222H52.4077V70.7037H50.9262V69.2222ZM52.4077 69.2222H53.8891V70.7037H52.4077V69.2222ZM53.8891 69.2222H55.3706V70.7037H53.8891V69.2222ZM55.3706 69.2222H56.8521V70.7037H55.3706V69.2222ZM56.8521 69.2222H58.3336V70.7037H56.8521V69.2222ZM56.8521 70.7037H58.3336V72.1852H56.8521V70.7037ZM58.3336 70.7037H59.8151V72.1852H58.3336V70.7037ZM55.3706 70.7037H56.8521V72.1852H55.3706V70.7037ZM53.8891 70.7037H55.3706V72.1852H53.8891V70.7037ZM52.4077 70.7037H53.8891V72.1852H52.4077V70.7037ZM50.9262 70.7037H52.4077V72.1852H50.9262V70.7037ZM49.4447 70.7037H50.9262V72.1852H49.4447V70.7037ZM47.9632 72.1852H49.4447V73.6667H47.9632V72.1852ZM47.9632 70.7037H49.4447V72.1852H47.9632V70.7037ZM46.4817 72.1852H47.9632V73.6667H46.4817V72.1852ZM49.4447 72.1852H50.9262V73.6667H49.4447V72.1852ZM50.9262 72.1852H52.4077V73.6667H50.9262V72.1852ZM52.4077 72.1852H53.8891V73.6667H52.4077V72.1852ZM53.8891 72.1852H55.3706V73.6667H53.8891V72.1852ZM55.3706 72.1852H56.8521V73.6667H55.3706V72.1852ZM56.8521 72.1852H58.3336V73.6667H56.8521V72.1852ZM58.3336 72.1852H59.8151V73.6667H58.3336V72.1852ZM59.8151 72.1852H61.2965V73.6667H59.8151V72.1852ZM59.8151 73.6667H61.2965V75.1482H59.8151V73.6667ZM58.3336 73.6667H59.8151V75.1482H58.3336V73.6667ZM56.8521 73.6667H58.3336V75.1482H56.8521V73.6667ZM55.3706 73.6667H56.8521V75.1482H55.3706V73.6667ZM56.8521 75.1482H58.3336V76.6296H56.8521V75.1482ZM59.8151 75.1482H61.2965V76.6296H59.8151V75.1482ZM58.3336 75.1482H59.8151V76.6296H58.3336V75.1482ZM59.8151 84.0371H61.2965V85.5185H59.8151V84.0371ZM59.8151 85.5185H61.2965V87H59.8151V85.5185ZM59.8151 87H61.2965V88.4815H59.8151V87ZM58.3336 87H59.8151V88.4815H58.3336V87ZM58.3336 85.5185H59.8151V87H58.3336V85.5185ZM58.3336 84.0371H59.8151V85.5185H58.3336V84.0371ZM56.8521 84.0371H58.3336V85.5185H56.8521V84.0371ZM56.8521 85.5185H58.3336V87H56.8521V85.5185ZM55.3706 85.5185H56.8521V87H55.3706V85.5185ZM56.8521 87H58.3336V88.4815H56.8521V87ZM58.3336 88.4815H59.8151V89.963H58.3336V88.4815ZM56.8521 88.4815H58.3336V89.963H56.8521V88.4815ZM55.3706 87H56.8521V88.4815H55.3706V87ZM55.3706 88.4815H56.8521V89.963H55.3706V88.4815ZM56.8521 89.963H58.3336V91.4445H56.8521V89.963ZM55.3706 89.963H56.8521V91.4445H55.3706V89.963ZM53.8891 89.963H55.3706V91.4445H53.8891V89.963ZM52.4077 89.963H53.8891V91.4445H52.4077V89.963ZM50.9262 89.963H52.4077V91.4445H50.9262V89.963ZM49.4447 89.963H50.9262V91.4445H49.4447V89.963ZM49.4447 88.4815H50.9262V89.963H49.4447V88.4815ZM50.9262 88.4815H52.4077V89.963H50.9262V88.4815ZM50.9262 87H52.4077V88.4815H50.9262V87ZM52.4077 87H53.8891V88.4815H52.4077V87ZM53.8891 87H55.3706V88.4815H53.8891V87ZM53.8891 88.4815H55.3706V89.963H53.8891V88.4815ZM52.4077 88.4815H53.8891V89.963H52.4077V88.4815ZM47.9632 88.4815H49.4447V89.963H47.9632V88.4815ZM49.4447 87H50.9262V88.4815H49.4447V87ZM50.9262 85.5185H52.4077V87H50.9262V85.5185ZM49.4447 85.5185H50.9262V87H49.4447V85.5185ZM47.9632 85.5185H49.4447V87H47.9632V85.5185ZM47.9632 87H49.4447V88.4815H47.9632V87ZM46.4817 87H47.9632V88.4815H46.4817V87ZM46.4817 85.5185H47.9632V87H46.4817V85.5185ZM46.4817 84.0371H47.9632V85.5185H46.4817V84.0371ZM46.4817 82.5556H47.9632V84.0371H46.4817V82.5556ZM46.4817 81.0741H47.9632V82.5556H46.4817V81.0741ZM46.4817 79.5926H47.9632V81.0741H46.4817V79.5926ZM46.4817 78.1111H47.9632V79.5926H46.4817V78.1111ZM46.4817 76.6296H47.9632V78.1111H46.4817V76.6296ZM46.4817 75.1482H47.9632V76.6296H46.4817V75.1482ZM46.4817 73.6667H47.9632V75.1482H46.4817V73.6667ZM47.9632 73.6667H49.4447V75.1482H47.9632V73.6667ZM49.4447 73.6667H50.9262V75.1482H49.4447V73.6667ZM50.9262 73.6667H52.4077V75.1482H50.9262V73.6667ZM49.4447 75.1482H50.9262V76.6296H49.4447V75.1482ZM49.4447 76.6296H50.9262V78.1111H49.4447V76.6296ZM49.4447 78.1111H50.9262V79.5926H49.4447V78.1111ZM49.4447 79.5926H50.9262V81.0741H49.4447V79.5926ZM49.4447 81.0741H50.9262V82.5556H49.4447V81.0741ZM49.4447 82.5556H50.9262V84.0371H49.4447V82.5556ZM49.4447 84.0371H50.9262V85.5185H49.4447V84.0371ZM47.9632 84.0371H49.4447V85.5185H47.9632V84.0371ZM47.9632 82.5556H49.4447V84.0371H47.9632V82.5556ZM47.9632 81.0741H49.4447V82.5556H47.9632V81.0741ZM47.9632 79.5926H49.4447V81.0741H47.9632V79.5926ZM47.9632 78.1111H49.4447V79.5926H47.9632V78.1111ZM47.9632 76.6296H49.4447V78.1111H47.9632V76.6296ZM47.9632 75.1482H49.4447V76.6296H47.9632V75.1482ZM67.2181 69.2222H68.6996V70.7037H67.2181V69.2222ZM68.6996 69.2222H70.1811V70.7037H68.6996V69.2222ZM70.1811 69.2222H71.6626V70.7037H70.1811V69.2222ZM71.6626 69.2222H73.1441V70.7037H71.6626V69.2222ZM73.1441 69.2222H74.6255V70.7037H73.1441V69.2222ZM74.6255 69.2222H76.107V70.7037H74.6255V69.2222ZM74.6255 70.7037H76.107V72.1852H74.6255V70.7037ZM76.107 70.7037H77.5885V72.1852H76.107V70.7037ZM73.1441 70.7037H74.6255V72.1852H73.1441V70.7037ZM71.6626 70.7037H73.1441V72.1852H71.6626V70.7037ZM70.1811 70.7037H71.6626V72.1852H70.1811V70.7037ZM68.6996 70.7037H70.1811V72.1852H68.6996V70.7037ZM67.2181 70.7037H68.6996V72.1852H67.2181V70.7037ZM65.7366 72.1852H67.2181V73.6667H65.7366V72.1852ZM65.7366 70.7037H67.2181V72.1852H65.7366V70.7037ZM64.2552 72.1852H65.7366V73.6667H64.2552V72.1852ZM67.2181 72.1852H68.6996V73.6667H67.2181V72.1852ZM68.6996 72.1852H70.1811V73.6667H68.6996V72.1852ZM70.1811 72.1852H71.6626V73.6667H70.1811V72.1852ZM71.6626 72.1852H73.1441V73.6667H71.6626V72.1852ZM73.1441 72.1852H74.6255V73.6667H73.1441V72.1852ZM74.6255 72.1852H76.107V73.6667H74.6255V72.1852ZM76.107 72.1852H77.5885V73.6667H76.107V72.1852ZM77.5885 72.1852H79.07V73.6667H77.5885V72.1852ZM77.5885 73.6667H79.07V75.1482H77.5885V73.6667ZM76.107 73.6667H77.5885V75.1482H76.107V73.6667ZM74.6255 73.6667H76.107V75.1482H74.6255V73.6667ZM73.1441 73.6667H74.6255V75.1482H73.1441V73.6667ZM74.6255 75.1482H76.107V76.6296H74.6255V75.1482ZM74.6255 76.6296H76.107V78.1111H74.6255V76.6296ZM74.6255 78.1111H76.107V79.5926H74.6255V78.1111ZM74.6255 79.5926H76.107V81.0741H74.6255V79.5926ZM74.6255 81.0741H76.107V82.5556H74.6255V81.0741ZM76.107 79.5926H77.5885V81.0741H76.107V79.5926ZM77.5885 79.5926H79.07V81.0741H77.5885V79.5926ZM77.5885 78.1111H79.07V79.5926H77.5885V78.1111ZM77.5885 76.6296H79.07V78.1111H77.5885V76.6296ZM77.5885 75.1482H79.07V76.6296H77.5885V75.1482ZM76.107 75.1482H77.5885V76.6296H76.107V75.1482ZM76.107 76.6296H77.5885V78.1111H76.107V76.6296ZM76.107 78.1111H77.5885V79.5926H76.107V78.1111ZM76.107 81.0741H77.5885V82.5556H76.107V81.0741ZM76.107 82.5556H77.5885V84.0371H76.107V82.5556ZM77.5885 82.5556H79.07V84.0371H77.5885V82.5556ZM77.5885 81.0741H79.07V82.5556H77.5885V81.0741ZM77.5885 84.0371H79.07V85.5185H77.5885V84.0371ZM77.5885 85.5185H79.07V87H77.5885V85.5185ZM77.5885 87H79.07V88.4815H77.5885V87ZM76.107 87H77.5885V88.4815H76.107V87ZM76.107 85.5185H77.5885V87H76.107V85.5185ZM76.107 84.0371H77.5885V85.5185H76.107V84.0371ZM74.6255 82.5556H76.107V84.0371H74.6255V82.5556ZM74.6255 84.0371H76.107V85.5185H74.6255V84.0371ZM74.6255 85.5185H76.107V87H74.6255V85.5185ZM73.1441 85.5185H74.6255V87H73.1441V85.5185ZM74.6255 87H76.107V88.4815H74.6255V87ZM76.107 88.4815H77.5885V89.963H76.107V88.4815ZM74.6255 88.4815H76.107V89.963H74.6255V88.4815ZM73.1441 87H74.6255V88.4815H73.1441V87ZM73.1441 88.4815H74.6255V89.963H73.1441V88.4815ZM74.6255 89.963H76.107V91.4445H74.6255V89.963ZM73.1441 89.963H74.6255V91.4445H73.1441V89.963ZM71.6626 89.963H73.1441V91.4445H71.6626V89.963ZM70.1811 89.963H71.6626V91.4445H70.1811V89.963ZM68.6996 89.963H70.1811V91.4445H68.6996V89.963ZM67.2181 89.963H68.6996V91.4445H67.2181V89.963ZM67.2181 88.4815H68.6996V89.963H67.2181V88.4815ZM68.6996 88.4815H70.1811V89.963H68.6996V88.4815ZM68.6996 87H70.1811V88.4815H68.6996V87ZM70.1811 87H71.6626V88.4815H70.1811V87ZM71.6626 87H73.1441V88.4815H71.6626V87ZM71.6626 88.4815H73.1441V89.963H71.6626V88.4815ZM70.1811 88.4815H71.6626V89.963H70.1811V88.4815ZM65.7366 88.4815H67.2181V89.963H65.7366V88.4815ZM67.2181 87H68.6996V88.4815H67.2181V87ZM68.6996 85.5185H70.1811V87H68.6996V85.5185ZM67.2181 85.5185H68.6996V87H67.2181V85.5185ZM65.7366 85.5185H67.2181V87H65.7366V85.5185ZM65.7366 87H67.2181V88.4815H65.7366V87ZM64.2552 87H65.7366V88.4815H64.2552V87ZM64.2552 85.5185H65.7366V87H64.2552V85.5185ZM64.2552 84.0371H65.7366V85.5185H64.2552V84.0371ZM64.2552 82.5556H65.7366V84.0371H64.2552V82.5556ZM64.2552 81.0741H65.7366V82.5556H64.2552V81.0741ZM64.2552 79.5926H65.7366V81.0741H64.2552V79.5926ZM64.2552 78.1111H65.7366V79.5926H64.2552V78.1111ZM64.2552 76.6296H65.7366V78.1111H64.2552V76.6296ZM64.2552 75.1482H65.7366V76.6296H64.2552V75.1482ZM64.2552 73.6667H65.7366V75.1482H64.2552V73.6667ZM65.7366 73.6667H67.2181V75.1482H65.7366V73.6667ZM67.2181 73.6667H68.6996V75.1482H67.2181V73.6667ZM68.6996 73.6667H70.1811V75.1482H68.6996V73.6667ZM67.2181 75.1482H68.6996V76.6296H67.2181V75.1482ZM67.2181 76.6296H68.6996V78.1111H67.2181V76.6296ZM67.2181 78.1111H68.6996V79.5926H67.2181V78.1111ZM67.2181 79.5926H68.6996V81.0741H67.2181V79.5926ZM67.2181 81.0741H68.6996V82.5556H67.2181V81.0741ZM67.2181 82.5556H68.6996V84.0371H67.2181V82.5556ZM67.2181 84.0371H68.6996V85.5185H67.2181V84.0371ZM65.7366 84.0371H67.2181V85.5185H65.7366V84.0371ZM65.7366 82.5556H67.2181V84.0371H65.7366V82.5556ZM65.7366 81.0741H67.2181V82.5556H65.7366V81.0741ZM65.7366 79.5926H67.2181V81.0741H65.7366V79.5926ZM65.7366 78.1111H67.2181V79.5926H65.7366V78.1111ZM65.7366 76.6296H67.2181V78.1111H65.7366V76.6296ZM65.7366 75.1482H67.2181V76.6296H65.7366V75.1482ZM84.9916 69.2222H86.473V70.7037H84.9916V69.2222ZM86.473 69.2222H87.9545V70.7037H86.473V69.2222ZM87.9545 69.2222H89.436V70.7037H87.9545V69.2222ZM89.436 69.2222H90.9175V70.7037H89.436V69.2222ZM90.9175 69.2222H92.399V70.7037H90.9175V69.2222ZM92.399 69.2222H93.8805V70.7037H92.399V69.2222ZM92.399 70.7037H93.8805V72.1852H92.399V70.7037ZM93.8805 70.7037H95.3619V72.1852H93.8805V70.7037ZM90.9175 70.7037H92.399V72.1852H90.9175V70.7037ZM89.436 70.7037H90.9175V72.1852H89.436V70.7037ZM87.9545 70.7037H89.436V72.1852H87.9545V70.7037ZM86.473 70.7037H87.9545V72.1852H86.473V70.7037ZM84.9916 70.7037H86.473V72.1852H84.9916V70.7037ZM83.5101 72.1852H84.9916V73.6667H83.5101V72.1852ZM83.5101 70.7037H84.9916V72.1852H83.5101V70.7037ZM82.0286 72.1852H83.5101V73.6667H82.0286V72.1852ZM84.9916 72.1852H86.473V73.6667H84.9916V72.1852ZM86.473 72.1852H87.9545V73.6667H86.473V72.1852ZM87.9545 72.1852H89.436V73.6667H87.9545V72.1852ZM89.436 72.1852H90.9175V73.6667H89.436V72.1852ZM90.9175 72.1852H92.399V73.6667H90.9175V72.1852ZM92.399 72.1852H93.8805V73.6667H92.399V72.1852ZM93.8805 72.1852H95.3619V73.6667H93.8805V72.1852ZM95.3619 72.1852H96.8434V73.6667H95.3619V72.1852ZM95.3619 73.6667H96.8434V75.1482H95.3619V73.6667ZM93.8805 73.6667H95.3619V75.1482H93.8805V73.6667ZM92.399 73.6667H93.8805V75.1482H92.399V73.6667ZM90.9175 73.6667H92.399V75.1482H90.9175V73.6667ZM92.399 75.1482H93.8805V76.6296H92.399V75.1482ZM95.3619 75.1482H96.8434V76.6296H95.3619V75.1482ZM93.8805 75.1482H95.3619V76.6296H93.8805V75.1482ZM95.3619 84.0371H96.8434V85.5185H95.3619V84.0371ZM95.3619 85.5185H96.8434V87H95.3619V85.5185ZM95.3619 87H96.8434V88.4815H95.3619V87ZM93.8805 87H95.3619V88.4815H93.8805V87ZM93.8805 85.5185H95.3619V87H93.8805V85.5185ZM93.8805 84.0371H95.3619V85.5185H93.8805V84.0371ZM92.399 84.0371H93.8805V85.5185H92.399V84.0371ZM92.399 85.5185H93.8805V87H92.399V85.5185ZM90.9175 85.5185H92.399V87H90.9175V85.5185ZM92.399 87H93.8805V88.4815H92.399V87ZM93.8805 88.4815H95.3619V89.963H93.8805V88.4815ZM92.399 88.4815H93.8805V89.963H92.399V88.4815ZM90.9175 87H92.399V88.4815H90.9175V87ZM90.9175 88.4815H92.399V89.963H90.9175V88.4815ZM92.399 89.963H93.8805V91.4445H92.399V89.963ZM90.9175 89.963H92.399V91.4445H90.9175V89.963ZM89.436 89.963H90.9175V91.4445H89.436V89.963ZM87.9545 89.963H89.436V91.4445H87.9545V89.963ZM86.473 89.963H87.9545V91.4445H86.473V89.963ZM84.9916 89.963H86.473V91.4445H84.9916V89.963ZM84.9916 88.4815H86.473V89.963H84.9916V88.4815ZM86.473 88.4815H87.9545V89.963H86.473V88.4815ZM86.473 87H87.9545V88.4815H86.473V87ZM87.9545 87H89.436V88.4815H87.9545V87ZM89.436 87H90.9175V88.4815H89.436V87ZM89.436 88.4815H90.9175V89.963H89.436V88.4815ZM87.9545 88.4815H89.436V89.963H87.9545V88.4815ZM83.5101 88.4815H84.9916V89.963H83.5101V88.4815ZM84.9916 87H86.473V88.4815H84.9916V87ZM86.473 85.5185H87.9545V87H86.473V85.5185ZM84.9916 85.5185H86.473V87H84.9916V85.5185ZM83.5101 85.5185H84.9916V87H83.5101V85.5185ZM83.5101 87H84.9916V88.4815H83.5101V87ZM82.0286 87H83.5101V88.4815H82.0286V87ZM82.0286 85.5185H83.5101V87H82.0286V85.5185ZM82.0286 84.0371H83.5101V85.5185H82.0286V84.0371ZM82.0286 82.5556H83.5101V84.0371H82.0286V82.5556ZM82.0286 81.0741H83.5101V82.5556H82.0286V81.0741ZM82.0286 79.5926H83.5101V81.0741H82.0286V79.5926ZM82.0286 78.1111H83.5101V79.5926H82.0286V78.1111ZM82.0286 76.6296H83.5101V78.1111H82.0286V76.6296ZM82.0286 75.1482H83.5101V76.6296H82.0286V75.1482ZM82.0286 73.6667H83.5101V75.1482H82.0286V73.6667ZM83.5101 73.6667H84.9916V75.1482H83.5101V73.6667ZM84.9916 73.6667H86.473V75.1482H84.9916V73.6667ZM86.473 73.6667H87.9545V75.1482H86.473V73.6667ZM84.9916 75.1482H86.473V76.6296H84.9916V75.1482ZM84.9916 76.6296H86.473V78.1111H84.9916V76.6296ZM84.9916 78.1111H86.473V79.5926H84.9916V78.1111ZM84.9916 79.5926H86.473V81.0741H84.9916V79.5926ZM84.9916 81.0741H86.473V82.5556H84.9916V81.0741ZM84.9916 82.5556H86.473V84.0371H84.9916V82.5556ZM84.9916 84.0371H86.473V85.5185H84.9916V84.0371ZM83.5101 84.0371H84.9916V85.5185H83.5101V84.0371ZM83.5101 82.5556H84.9916V84.0371H83.5101V82.5556ZM83.5101 81.0741H84.9916V82.5556H83.5101V81.0741ZM83.5101 79.5926H84.9916V81.0741H83.5101V79.5926ZM83.5101 78.1111H84.9916V79.5926H83.5101V78.1111ZM83.5101 76.6296H84.9916V78.1111H83.5101V76.6296ZM83.5101 75.1482H84.9916V76.6296H83.5101V75.1482ZM105.728 69.2222H107.209V70.7037H105.728V69.2222ZM107.209 69.2222H108.691V70.7037H107.209V69.2222ZM107.209 70.7037H108.691V72.1852H107.209V70.7037ZM108.691 70.7037H110.172V72.1852H108.691V70.7037ZM105.728 70.7037H107.209V72.1852H105.728V70.7037ZM104.246 70.7037H105.728V72.1852H104.246V70.7037ZM104.246 72.1852H105.728V73.6667H104.246V72.1852ZM102.765 72.1852H104.246V73.6667H102.765V72.1852ZM105.728 72.1852H107.209V73.6667H105.728V72.1852ZM107.209 72.1852H108.691V73.6667H107.209V72.1852ZM108.691 72.1852H110.172V73.6667H108.691V72.1852ZM110.172 72.1852H111.654V73.6667H110.172V72.1852ZM110.172 73.6667H111.654V75.1482H110.172V73.6667ZM111.654 73.6667H113.135V75.1482H111.654V73.6667ZM108.691 73.6667H110.172V75.1482H108.691V73.6667ZM107.209 73.6667H108.691V75.1482H107.209V73.6667ZM105.728 73.6667H107.209V75.1482H105.728V73.6667ZM104.246 73.6667H105.728V75.1482H104.246V73.6667ZM102.765 73.6667H104.246V75.1482H102.765V73.6667ZM101.284 73.6667H102.765V75.1482H101.284V73.6667ZM104.246 75.1482H105.728V76.6296H104.246V75.1482ZM102.765 75.1482H104.246V76.6296H102.765V75.1482ZM101.284 75.1482H102.765V76.6296H101.284V75.1482ZM99.802 75.1482H101.284V76.6296H99.802V75.1482ZM99.802 76.6296H101.284V78.1111H99.802V76.6296ZM99.802 78.1111H101.284V79.5926H99.802V78.1111ZM101.284 78.1111H102.765V79.5926H101.284V78.1111ZM101.284 76.6296H102.765V78.1111H101.284V76.6296ZM102.765 76.6296H104.246V78.1111H102.765V76.6296ZM102.765 78.1111H104.246V79.5926H102.765V78.1111ZM102.765 79.5926H104.246V81.0741H102.765V79.5926ZM101.284 79.5926H102.765V81.0741H101.284V79.5926ZM99.802 79.5926H101.284V81.0741H99.802V79.5926ZM99.802 81.0741H101.284V82.5556H99.802V81.0741ZM101.284 81.0741H102.765V82.5556H101.284V81.0741ZM102.765 81.0741H104.246V82.5556H102.765V81.0741ZM104.246 81.0741H105.728V82.5556H104.246V81.0741ZM105.728 81.0741H107.209V82.5556H105.728V81.0741ZM107.209 81.0741H108.691V82.5556H107.209V81.0741ZM108.691 81.0741H110.172V82.5556H108.691V81.0741ZM110.172 79.5926H111.654V81.0741H110.172V79.5926ZM111.654 79.5926H113.135V81.0741H111.654V79.5926ZM111.654 81.0741H113.135V82.5556H111.654V81.0741ZM110.172 81.0741H111.654V82.5556H110.172V81.0741ZM113.135 81.0741H114.617V82.5556H113.135V81.0741ZM113.135 79.5926H114.617V81.0741H113.135V79.5926ZM113.135 78.1111H114.617V79.5926H113.135V78.1111ZM113.135 76.6296H114.617V78.1111H113.135V76.6296ZM113.135 75.1482H114.617V76.6296H113.135V75.1482ZM111.654 75.1482H113.135V76.6296H111.654V75.1482ZM110.172 75.1482H111.654V76.6296H110.172V75.1482ZM108.691 75.1482H110.172V76.6296H108.691V75.1482ZM111.654 76.6296H113.135V78.1111H111.654V76.6296ZM111.654 78.1111H113.135V79.5926H111.654V78.1111ZM110.172 78.1111H111.654V79.5926H110.172V78.1111ZM110.172 76.6296H111.654V78.1111H110.172V76.6296ZM99.802 82.5556H101.284V84.0371H99.802V82.5556ZM101.284 82.5556H102.765V84.0371H101.284V82.5556ZM102.765 82.5556H104.246V84.0371H102.765V82.5556ZM104.246 82.5556H105.728V84.0371H104.246V82.5556ZM105.728 82.5556H107.209V84.0371H105.728V82.5556ZM107.209 82.5556H108.691V84.0371H107.209V82.5556ZM108.691 82.5556H110.172V84.0371H108.691V82.5556ZM110.172 82.5556H111.654V84.0371H110.172V82.5556ZM111.654 82.5556H113.135V84.0371H111.654V82.5556ZM113.135 82.5556H114.617V84.0371H113.135V82.5556ZM113.135 84.0371H114.617V85.5185H113.135V84.0371ZM111.654 84.0371H113.135V85.5185H111.654V84.0371ZM110.172 84.0371H111.654V85.5185H110.172V84.0371ZM108.691 84.0371H110.172V85.5185H108.691V84.0371ZM107.209 84.0371H108.691V85.5185H107.209V84.0371ZM105.728 84.0371H107.209V85.5185H105.728V84.0371ZM104.246 84.0371H105.728V85.5185H104.246V84.0371ZM101.284 84.0371H102.765V85.5185H101.284V84.0371ZM99.802 84.0371H101.284V85.5185H99.802V84.0371ZM102.765 84.0371H104.246V85.5185H102.765V84.0371ZM102.765 85.5185H104.246V87H102.765V85.5185ZM102.765 87H104.246V88.4815H102.765V87ZM102.765 88.4815H104.246V89.963H102.765V88.4815ZM102.765 89.963H104.246V91.4445H102.765V89.963ZM101.284 89.963H102.765V91.4445H101.284V89.963ZM99.802 89.963H101.284V91.4445H99.802V89.963ZM99.802 88.4815H101.284V89.963H99.802V88.4815ZM99.802 87H101.284V88.4815H99.802V87ZM99.802 85.5185H101.284V87H99.802V85.5185ZM101.284 85.5185H102.765V87H101.284V85.5185ZM101.284 87H102.765V88.4815H101.284V87ZM101.284 88.4815H102.765V89.963H101.284V88.4815ZM110.172 85.5185H111.654V87H110.172V85.5185ZM110.172 87H111.654V88.4815H110.172V87ZM110.172 88.4815H111.654V89.963H110.172V88.4815ZM110.172 89.963H111.654V91.4445H110.172V89.963ZM111.654 89.963H113.135V91.4445H111.654V89.963ZM113.135 89.963H114.617V91.4445H113.135V89.963ZM113.135 88.4815H114.617V89.963H113.135V88.4815ZM113.135 87H114.617V88.4815H113.135V87ZM113.135 85.5185H114.617V87H113.135V85.5185ZM111.654 85.5185H113.135V87H111.654V85.5185ZM111.654 87H113.135V88.4815H111.654V87ZM111.654 88.4815H113.135V89.963H111.654V88.4815ZM129.427 69.2222H130.909V70.7037H129.427V69.2222ZM127.946 69.2222H129.427V70.7037H127.946V69.2222ZM126.464 69.2222H127.946V70.7037H126.464V69.2222ZM123.501 69.2222H124.983V70.7037H123.501V69.2222ZM122.02 69.2222H123.501V70.7037H122.02V69.2222ZM120.538 69.2222H122.02V70.7037H120.538V69.2222ZM124.983 69.2222H126.464V70.7037H124.983V69.2222ZM124.983 70.7037H126.464V72.1852H124.983V70.7037ZM126.464 70.7037H127.946V72.1852H126.464V70.7037ZM127.946 70.7037H129.427V72.1852H127.946V70.7037ZM129.427 70.7037H130.909V72.1852H129.427V70.7037ZM130.909 70.7037H132.39V72.1852H130.909V70.7037ZM123.501 70.7037H124.983V72.1852H123.501V70.7037ZM122.02 70.7037H123.501V72.1852H122.02V70.7037ZM120.538 70.7037H122.02V72.1852H120.538V70.7037ZM119.057 70.7037H120.538V72.1852H119.057V70.7037ZM117.575 72.1852H119.057V73.6667H117.575V72.1852ZM119.057 72.1852H120.538V73.6667H119.057V72.1852ZM120.538 72.1852H122.02V73.6667H120.538V72.1852ZM122.02 72.1852H123.501V73.6667H122.02V72.1852ZM123.501 72.1852H124.983V73.6667H123.501V72.1852ZM124.983 72.1852H126.464V73.6667H124.983V72.1852ZM126.464 72.1852H127.946V73.6667H126.464V72.1852ZM127.946 72.1852H129.427V73.6667H127.946V72.1852ZM129.427 72.1852H130.909V73.6667H129.427V72.1852ZM130.909 72.1852H132.39V73.6667H130.909V72.1852ZM132.39 72.1852H133.872V73.6667H132.39V72.1852ZM132.39 73.6667H133.872V75.1482H132.39V73.6667ZM132.39 75.1482H133.872V76.6296H132.39V75.1482ZM130.909 75.1482H132.39V76.6296H130.909V75.1482ZM130.909 73.6667H132.39V75.1482H130.909V73.6667ZM129.427 75.1482H130.909V76.6296H129.427V75.1482ZM129.427 73.6667H130.909V75.1482H129.427V73.6667ZM127.946 73.6667H129.427V75.1482H127.946V73.6667ZM122.02 73.6667H123.501V75.1482H122.02V73.6667ZM120.538 73.6667H122.02V75.1482H120.538V73.6667ZM119.057 73.6667H120.538V75.1482H119.057V73.6667ZM117.575 73.6667H119.057V75.1482H117.575V73.6667ZM117.575 75.1482H119.057V76.6296H117.575V75.1482ZM119.057 75.1482H120.538V76.6296H119.057V75.1482ZM119.057 76.6296H120.538V78.1111H119.057V76.6296ZM120.538 75.1482H122.02V76.6296H120.538V75.1482ZM120.538 76.6296H122.02V78.1111H120.538V76.6296ZM122.02 76.6296H123.501V78.1111H122.02V76.6296ZM117.575 76.6296H119.057V78.1111H117.575V76.6296ZM117.575 78.1111H119.057V79.5926H117.575V78.1111ZM119.057 78.1111H120.538V79.5926H119.057V78.1111ZM119.057 79.5926H120.538V81.0741H119.057V79.5926ZM120.538 79.5926H122.02V81.0741H120.538V79.5926ZM120.538 78.1111H122.02V79.5926H120.538V78.1111ZM122.02 78.1111H123.501V79.5926H122.02V78.1111ZM122.02 79.5926H123.501V81.0741H122.02V79.5926ZM120.538 81.0741H122.02V82.5556H120.538V81.0741ZM122.02 81.0741H123.501V82.5556H122.02V81.0741ZM123.501 81.0741H124.983V82.5556H123.501V81.0741ZM124.983 81.0741H126.464V82.5556H124.983V81.0741ZM126.464 81.0741H127.946V82.5556H126.464V81.0741ZM126.464 79.5926H127.946V81.0741H126.464V79.5926ZM127.946 79.5926H129.427V81.0741H127.946V79.5926ZM129.427 79.5926H130.909V81.0741H129.427V79.5926ZM129.427 78.1111H130.909V79.5926H129.427V78.1111ZM127.946 78.1111H129.427V79.5926H127.946V78.1111ZM126.464 78.1111H127.946V79.5926H126.464V78.1111ZM124.983 78.1111H126.464V79.5926H124.983V78.1111ZM124.983 79.5926H126.464V81.0741H124.983V79.5926ZM123.501 79.5926H124.983V81.0741H123.501V79.5926ZM123.501 78.1111H124.983V79.5926H123.501V78.1111ZM130.909 79.5926H132.39V81.0741H130.909V79.5926ZM130.909 81.0741H132.39V82.5556H130.909V81.0741ZM129.427 81.0741H130.909V82.5556H129.427V81.0741ZM129.427 82.5556H130.909V84.0371H129.427V82.5556ZM127.946 82.5556H129.427V84.0371H127.946V82.5556ZM127.946 81.0741H129.427V82.5556H127.946V81.0741ZM130.909 82.5556H132.39V84.0371H130.909V82.5556ZM132.39 82.5556H133.872V84.0371H132.39V82.5556ZM132.39 81.0741H133.872V82.5556H132.39V81.0741ZM132.39 84.0371H133.872V85.5185H132.39V84.0371ZM132.39 85.5185H133.872V87H132.39V85.5185ZM132.39 87H133.872V88.4815H132.39V87ZM130.909 87H132.39V88.4815H130.909V87ZM130.909 88.4815H132.39V89.963H130.909V88.4815ZM129.427 88.4815H130.909V89.963H129.427V88.4815ZM129.427 87H130.909V88.4815H129.427V87ZM127.946 87H129.427V88.4815H127.946V87ZM127.946 85.5185H129.427V87H127.946V85.5185ZM129.427 85.5185H130.909V87H129.427V85.5185ZM129.427 84.0371H130.909V85.5185H129.427V84.0371ZM130.909 84.0371H132.39V85.5185H130.909V84.0371ZM130.909 85.5185H132.39V87H130.909V85.5185ZM117.575 84.0371H119.057V85.5185H117.575V84.0371ZM117.575 85.5185H119.057V87H117.575V85.5185ZM119.057 85.5185H120.538V87H119.057V85.5185ZM119.057 84.0371H120.538V85.5185H119.057V84.0371ZM120.538 84.0371H122.02V85.5185H120.538V84.0371ZM120.538 85.5185H122.02V87H120.538V85.5185ZM117.575 87H119.057V88.4815H117.575V87ZM119.057 87H120.538V88.4815H119.057V87ZM122.02 85.5185H123.501V87H122.02V85.5185ZM122.02 87H123.501V88.4815H122.02V87ZM120.538 87H122.02V88.4815H120.538V87ZM120.538 88.4815H122.02V89.963H120.538V88.4815ZM119.057 88.4815H120.538V89.963H119.057V88.4815ZM120.538 89.963H122.02V91.4445H120.538V89.963ZM122.02 89.963H123.501V91.4445H122.02V89.963ZM123.501 89.963H124.983V91.4445H123.501V89.963ZM124.983 89.963H126.464V91.4445H124.983V89.963ZM126.464 89.963H127.946V91.4445H126.464V89.963ZM127.946 89.963H129.427V91.4445H127.946V89.963ZM129.427 89.963H130.909V91.4445H129.427V89.963ZM127.946 88.4815H129.427V89.963H127.946V88.4815ZM126.464 88.4815H127.946V89.963H126.464V88.4815ZM124.983 88.4815H126.464V89.963H124.983V88.4815ZM124.983 87H126.464V88.4815H124.983V87ZM123.501 87H124.983V88.4815H123.501V87ZM126.464 87H127.946V88.4815H126.464V87ZM123.501 88.4815H124.983V89.963H123.501V88.4815ZM122.02 88.4815H123.501V89.963H122.02V88.4815ZM141.278 78.1111H142.759V79.5926H141.278V78.1111ZM142.759 78.1111H144.241V79.5926H142.759V78.1111ZM144.241 78.1111H145.722V79.5926H144.241V78.1111ZM145.722 78.1111H147.204V79.5926H145.722V78.1111ZM147.204 78.1111H148.685V79.5926H147.204V78.1111ZM147.204 79.5926H148.685V81.0741H147.204V79.5926ZM147.204 81.0741H148.685V82.5556H147.204V81.0741ZM145.722 81.0741H147.204V82.5556H145.722V81.0741ZM144.241 81.0741H145.722V82.5556H144.241V81.0741ZM142.759 81.0741H144.241V82.5556H142.759V81.0741ZM141.278 81.0741H142.759V82.5556H141.278V81.0741ZM139.796 81.0741H141.278V82.5556H139.796V81.0741ZM138.315 81.0741H139.796V82.5556H138.315V81.0741ZM139.796 79.5926H141.278V81.0741H139.796V79.5926ZM141.278 79.5926H142.759V81.0741H141.278V79.5926ZM142.759 79.5926H144.241V81.0741H142.759V79.5926ZM144.241 79.5926H145.722V81.0741H144.241V79.5926ZM145.722 79.5926H147.204V81.0741H145.722V79.5926ZM139.796 78.1111H141.278V79.5926H139.796V78.1111ZM139.796 76.6296H141.278V78.1111H139.796V76.6296ZM139.796 75.1482H141.278V76.6296H139.796V75.1482ZM139.796 73.6667H141.278V75.1482H139.796V73.6667ZM139.796 72.1852H141.278V73.6667H139.796V72.1852ZM138.315 70.7037H139.796V72.1852H138.315V70.7037ZM138.315 69.2222H139.796V70.7037H138.315V69.2222ZM139.796 69.2222H141.278V70.7037H139.796V69.2222ZM139.796 70.7037H141.278V72.1852H139.796V70.7037ZM136.833 69.2222H138.315V70.7037H136.833V69.2222ZM136.833 70.7037H138.315V72.1852H136.833V70.7037ZM136.833 72.1852H138.315V73.6667H136.833V72.1852ZM136.833 73.6667H138.315V75.1482H136.833V73.6667ZM136.833 75.1482H138.315V76.6296H136.833V75.1482ZM136.833 76.6296H138.315V78.1111H136.833V76.6296ZM136.833 78.1111H138.315V79.5926H136.833V78.1111ZM136.833 79.5926H138.315V81.0741H136.833V79.5926ZM136.833 81.0741H138.315V82.5556H136.833V81.0741ZM138.315 79.5926H139.796V81.0741H138.315V79.5926ZM138.315 78.1111H139.796V79.5926H138.315V78.1111ZM138.315 76.6296H139.796V78.1111H138.315V76.6296ZM138.315 75.1482H139.796V76.6296H138.315V75.1482ZM138.315 73.6667H139.796V75.1482H138.315V73.6667ZM138.315 72.1852H139.796V73.6667H138.315V72.1852ZM138.315 82.5556H139.796V84.0371H138.315V82.5556ZM138.315 84.0371H139.796V85.5185H138.315V84.0371ZM138.315 85.5185H139.796V87H138.315V85.5185ZM138.315 87H139.796V88.4815H138.315V87ZM136.833 85.5185H138.315V87H136.833V85.5185ZM136.833 84.0371H138.315V85.5185H136.833V84.0371ZM136.833 82.5556H138.315V84.0371H136.833V82.5556ZM139.796 85.5185H141.278V87H139.796V85.5185ZM139.796 87H141.278V88.4815H139.796V87ZM139.796 84.0371H141.278V85.5185H139.796V84.0371ZM139.796 82.5556H141.278V84.0371H139.796V82.5556ZM139.796 88.4815H141.278V89.963H139.796V88.4815ZM139.796 89.963H141.278V91.4445H139.796V89.963ZM138.315 89.963H139.796V91.4445H138.315V89.963ZM138.315 88.4815H139.796V89.963H138.315V88.4815ZM136.833 88.4815H138.315V89.963H136.833V88.4815ZM136.833 87H138.315V88.4815H136.833V87ZM136.833 89.963H138.315V91.4445H136.833V89.963ZM147.204 69.2222H148.685V70.7037H147.204V69.2222ZM148.685 69.2222H150.167V70.7037H148.685V69.2222ZM150.167 69.2222H151.648V70.7037H150.167V69.2222ZM150.167 70.7037H151.648V72.1852H150.167V70.7037ZM150.167 72.1852H151.648V73.6667H150.167V72.1852ZM150.167 73.6667H151.648V75.1482H150.167V73.6667ZM150.167 75.1482H151.648V76.6296H150.167V75.1482ZM150.167 76.6296H151.648V78.1111H150.167V76.6296ZM148.685 76.6296H150.167V78.1111H148.685V76.6296ZM148.685 75.1482H150.167V76.6296H148.685V75.1482ZM148.685 73.6667H150.167V75.1482H148.685V73.6667ZM148.685 72.1852H150.167V73.6667H148.685V72.1852ZM148.685 70.7037H150.167V72.1852H148.685V70.7037ZM147.204 70.7037H148.685V72.1852H147.204V70.7037ZM147.204 72.1852H148.685V73.6667H147.204V72.1852ZM147.204 73.6667H148.685V75.1482H147.204V73.6667ZM147.204 75.1482H148.685V76.6296H147.204V75.1482ZM147.204 76.6296H148.685V78.1111H147.204V76.6296ZM147.204 82.5556H148.685V84.0371H147.204V82.5556ZM148.685 82.5556H150.167V84.0371H148.685V82.5556ZM148.685 84.0371H150.167V85.5185H148.685V84.0371ZM148.685 85.5185H150.167V87H148.685V85.5185ZM148.685 87H150.167V88.4815H148.685V87ZM147.204 87H148.685V88.4815H147.204V87ZM147.204 85.5185H148.685V87H147.204V85.5185ZM147.204 84.0371H148.685V85.5185H147.204V84.0371ZM147.204 88.4815H148.685V89.963H147.204V88.4815ZM147.204 89.963H148.685V91.4445H147.204V89.963ZM148.685 89.963H150.167V91.4445H148.685V89.963ZM150.167 89.963H151.648V91.4445H150.167V89.963ZM150.167 88.4815H151.648V89.963H150.167V88.4815ZM150.167 87H151.648V88.4815H150.167V87ZM150.167 85.5185H151.648V87H150.167V85.5185ZM150.167 84.0371H151.648V85.5185H150.167V84.0371ZM150.167 82.5556H151.648V84.0371H150.167V82.5556ZM150.167 81.0741H151.648V82.5556H150.167V81.0741ZM150.167 79.5926H151.648V81.0741H150.167V79.5926ZM148.685 79.5926H150.167V81.0741H148.685V79.5926ZM148.685 78.1111H150.167V79.5926H148.685V78.1111ZM150.167 78.1111H151.648V79.5926H150.167V78.1111ZM148.685 81.0741H150.167V82.5556H148.685V81.0741ZM148.685 88.4815H150.167V89.963H148.685V88.4815Z" fill="white"/>
</svg>
